# MagicaVoxel @ Ephtracy

# group
o 

# material
mtllib goblin.mtl
usemtl palette

# normals
vn -1 0 0
vn 1 0 0
vn 0 0 1
vn 0 0 -1
vn 0 -1 0
vn 0 1 0

# texcoords
vt 0.470703 0.5
vt 0.474609 0.5
vt 0.513672 0.5
vt 0.525391 0.5
vt 0.529297 0.5
vt 0.533203 0.5
vt 0.568359 0.5
vt 0.626953 0.5
vt 0.634766 0.5
vt 0.888672 0.5
vt 0.896484 0.5
vt 0.900391 0.5
vt 0.986328 0.5

# verts
v 0.3 2 -1
v 0.3 2 -1.1
v 0.3 2.1 -1
v 0.3 2.1 -1.1
v 0.4 1.9 -1
v 0.4 1.9 -1.1
v 0.4 2 -1
v 0.4 2 -1.1
v 0.5 1.8 -1
v 0.5 1.8 -1.1
v 0.5 1.9 -1
v 0.5 1.9 -1.1
v 0.6 1.8 -0.9
v 0.6 1.8 -1
v 0.6 1.8 -1.1
v 0.6 1.8 -1.2
v 0.6 1.9 -1
v 0.6 1.9 -1.1
v 0.6 2 -1
v 0.6 2 -1.1
v 0.6 2.1 -0.9
v 0.6 2.1 -1
v 0.6 2.1 -1.1
v 0.6 2.1 -1.2
v 0.6 2.2 -0.9
v 0.6 2.2 -1.2
v 0.7 1.2 -1
v 0.7 1.2 -1.1
v 0.7 1.3 -1
v 0.7 1.3 -1.1
v 0.7 1.6 -1
v 0.7 1.6 -1.1
v 0.7 1.7 -0.9
v 0.7 1.7 -1.2
v 0.7 1.8 -0.8
v 0.7 1.8 -0.9
v 0.7 1.8 -1.2
v 0.7 1.8 -1.3
v 0.7 2.1 -0.8
v 0.7 2.1 -0.9
v 0.7 2.1 -1.2
v 0.7 2.1 -1.3
v 0.7 2.2 -0.8
v 0.7 2.2 -0.9
v 0.7 2.2 -1.2
v 0.7 2.2 -1.3
v 0.7 2.3 -0.9
v 0.7 2.3 -1.2
v 0.8 1 -1
v 0.8 1 -1.1
v 0.8 1.1 -1
v 0.8 1.1 -1.1
v 0.8 1.2 -0.9
v 0.8 1.2 -1
v 0.8 1.2 -1.1
v 0.8 1.2 -1.2
v 0.8 1.3 -0.9
v 0.8 1.3 -1
v 0.8 1.3 -1.1
v 0.8 1.3 -1.2
v 0.8 1.6 -1
v 0.8 1.6 -1.1
v 0.8 1.7 -0.7
v 0.8 1.7 -0.8
v 0.8 1.7 -0.9
v 0.8 1.7 -1.2
v 0.8 1.7 -1.3
v 0.8 1.8 -0.7
v 0.8 1.8 -0.8
v 0.8 1.8 -0.9
v 0.8 1.8 -1.2
v 0.8 1.8 -1.3
v 0.8 1.9 -1.3
v 0.8 1.9 -1.4
v 0.8 2 -0.7
v 0.8 2 -0.8
v 0.8 2 -1.3
v 0.8 2 -1.4
v 0.8 2.1 -0.7
v 0.8 2.1 -0.8
v 0.8 2.2 -0.8
v 0.8 2.2 -0.9
v 0.8 2.3 -0.8
v 0.8 2.3 -0.9
v 0.8 2.3 -1.1
v 0.8 2.4 -0.9
v 0.8 2.4 -1.1
v 0.9 1.8 -0.6
v 0.9 1.8 -0.7
v 0.9 1.8 -1.3
v 0.9 1.8 -1.4
v 0.9 1.9 -1.3
v 0.9 1.9 -1.4
v 0.9 2 -0.6
v 0.9 2 -0.7
v 0.9 2 -1.3
v 0.9 2 -1.4
v 0.9 2.1 -0.7
v 0.9 2.1 -0.8
v 0.9 2.1 -1.3
v 0.9 2.1 -1.4
v 0.9 2.2 -0.7
v 0.9 2.2 -0.8
v 0.9 2.2 -1.2
v 0.9 2.2 -1.3
v 0.9 2.3 -1.1
v 0.9 2.3 -1.2
v 0.9 2.3 -1.3
v 0.9 2.4 -1.1
v 0.9 2.4 -1.2
v 1.1 1 -1
v 1.1 1 -1.1
v 1.1 1.1 -1
v 1.1 1.1 -1.1
v 1.1 1.2 -1
v 1.1 1.2 -1.1
v 1.1 1.7 -0.7
v 1.1 1.7 -0.8
v 1.1 1.8 -0.7
v 1.1 1.8 -0.8
v 0.9 1 -1
v 0.9 1 -1.1
v 0.9 1.1 -1
v 0.9 1.1 -1.1
v 0.9 1.2 -1
v 0.9 1.2 -1.1
v 0.9 1.7 -0.7
v 0.9 1.7 -0.8
v 0.9 1.8 -0.7
v 0.9 1.8 -0.8
v 1.1 1.8 -0.6
v 1.1 1.8 -0.7
v 1.1 1.8 -1.3
v 1.1 1.8 -1.4
v 1.1 1.9 -1.3
v 1.1 1.9 -1.4
v 1.1 2 -0.6
v 1.1 2 -0.7
v 1.1 2 -1.3
v 1.1 2 -1.4
v 1.1 2.1 -0.7
v 1.1 2.1 -0.8
v 1.1 2.1 -1.3
v 1.1 2.1 -1.4
v 1.1 2.2 -0.7
v 1.1 2.2 -0.8
v 1.1 2.2 -1.2
v 1.1 2.2 -1.3
v 1.1 2.3 -1.1
v 1.1 2.3 -1.2
v 1.1 2.3 -1.3
v 1.1 2.4 -1.1
v 1.1 2.4 -1.2
v 1.2 1 -1
v 1.2 1 -1.1
v 1.2 1.1 -1
v 1.2 1.1 -1.1
v 1.2 1.2 -0.9
v 1.2 1.2 -1
v 1.2 1.2 -1.1
v 1.2 1.2 -1.2
v 1.2 1.3 -0.9
v 1.2 1.3 -1
v 1.2 1.3 -1.1
v 1.2 1.3 -1.2
v 1.2 1.6 -1
v 1.2 1.6 -1.1
v 1.2 1.7 -0.7
v 1.2 1.7 -0.8
v 1.2 1.7 -0.9
v 1.2 1.7 -1.2
v 1.2 1.7 -1.3
v 1.2 1.8 -0.7
v 1.2 1.8 -0.8
v 1.2 1.8 -0.9
v 1.2 1.8 -1.2
v 1.2 1.8 -1.3
v 1.2 1.9 -1.3
v 1.2 1.9 -1.4
v 1.2 2 -0.7
v 1.2 2 -0.8
v 1.2 2 -1.3
v 1.2 2 -1.4
v 1.2 2.1 -0.7
v 1.2 2.1 -0.8
v 1.2 2.2 -0.8
v 1.2 2.2 -0.9
v 1.2 2.3 -0.8
v 1.2 2.3 -0.9
v 1.2 2.3 -1.1
v 1.2 2.4 -0.9
v 1.2 2.4 -1.1
v 1.3 1.2 -1
v 1.3 1.2 -1.1
v 1.3 1.3 -1
v 1.3 1.3 -1.1
v 1.3 1.6 -1
v 1.3 1.6 -1.1
v 1.3 1.7 -0.9
v 1.3 1.7 -1.2
v 1.3 1.8 -0.8
v 1.3 1.8 -0.9
v 1.3 1.8 -1.2
v 1.3 1.8 -1.3
v 1.3 2.1 -0.8
v 1.3 2.1 -0.9
v 1.3 2.1 -1.2
v 1.3 2.1 -1.3
v 1.3 2.2 -0.8
v 1.3 2.2 -0.9
v 1.3 2.2 -1.2
v 1.3 2.2 -1.3
v 1.3 2.3 -0.9
v 1.3 2.3 -1.2
v 1.4 1.8 -0.9
v 1.4 1.8 -1
v 1.4 1.8 -1.1
v 1.4 1.8 -1.2
v 1.4 1.9 -1
v 1.4 1.9 -1.1
v 1.4 2 -1
v 1.4 2 -1.1
v 1.4 2.1 -0.9
v 1.4 2.1 -1
v 1.4 2.1 -1.1
v 1.4 2.1 -1.2
v 1.4 2.2 -0.9
v 1.4 2.2 -1.2
v 1.5 1.8 -1
v 1.5 1.8 -1.1
v 1.5 1.9 -1
v 1.5 1.9 -1.1
v 1.6 1.9 -1
v 1.6 1.9 -1.1
v 1.6 2 -1
v 1.6 2 -1.1
v 1.7 2 -1
v 1.7 2 -1.1
v 1.7 2.1 -1
v 1.7 2.1 -1.1
v 0.9 1.8 -0.6
v 0.9 2 -0.6
v 1.1 1.8 -0.6
v 1.1 2 -0.6
v 0.8 1.7 -0.7
v 0.8 1.8 -0.7
v 0.8 2 -0.7
v 0.8 2.1 -0.7
v 0.9 1.7 -0.7
v 0.9 1.8 -0.7
v 0.9 2 -0.7
v 0.9 2.1 -0.7
v 0.9 2.2 -0.7
v 1.1 1.7 -0.7
v 1.1 1.8 -0.7
v 1.1 2 -0.7
v 1.1 2.1 -0.7
v 1.1 2.2 -0.7
v 1.2 1.7 -0.7
v 1.2 1.8 -0.7
v 1.2 2 -0.7
v 1.2 2.1 -0.7
v 0.7 1.8 -0.8
v 0.7 2.1 -0.8
v 0.7 2.2 -0.8
v 0.8 1.8 -0.8
v 0.8 2 -0.8
v 0.8 2.1 -0.8
v 0.8 2.2 -0.8
v 0.8 2.3 -0.8
v 0.9 1.7 -0.8
v 0.9 1.8 -0.8
v 0.9 2.1 -0.8
v 0.9 2.2 -0.8
v 1.1 1.7 -0.8
v 1.1 1.8 -0.8
v 1.1 2.1 -0.8
v 1.1 2.2 -0.8
v 1.2 1.8 -0.8
v 1.2 2 -0.8
v 1.2 2.1 -0.8
v 1.2 2.2 -0.8
v 1.2 2.3 -0.8
v 1.3 1.8 -0.8
v 1.3 2.1 -0.8
v 1.3 2.2 -0.8
v 0.6 1.8 -0.9
v 0.6 2.1 -0.9
v 0.6 2.2 -0.9
v 0.7 1.7 -0.9
v 0.7 1.8 -0.9
v 0.7 2.1 -0.9
v 0.7 2.2 -0.9
v 0.7 2.3 -0.9
v 0.8 1.2 -0.9
v 0.8 1.3 -0.9
v 0.8 1.7 -0.9
v 0.8 1.8 -0.9
v 0.8 2.2 -0.9
v 0.8 2.3 -0.9
v 0.8 2.4 -0.9
v 0.9 1.3 -0.9
v 0.9 1.4 -0.9
v 0.9 1.7 -0.9
v 1.1 1.3 -0.9
v 1.1 1.4 -0.9
v 1.1 1.7 -0.9
v 1.2 1.2 -0.9
v 1.2 1.3 -0.9
v 1.2 1.7 -0.9
v 1.2 1.8 -0.9
v 1.2 2.2 -0.9
v 1.2 2.3 -0.9
v 1.2 2.4 -0.9
v 1.3 1.7 -0.9
v 1.3 1.8 -0.9
v 1.3 2.1 -0.9
v 1.3 2.2 -0.9
v 1.3 2.3 -0.9
v 1.4 1.8 -0.9
v 1.4 2.1 -0.9
v 1.4 2.2 -0.9
v 0.3 2 -1
v 0.3 2.1 -1
v 0.4 1.9 -1
v 0.4 2 -1
v 0.4 2.1 -1
v 0.5 1.8 -1
v 0.5 1.9 -1
v 0.5 2 -1
v 0.5 2.1 -1
v 0.6 1.8 -1
v 0.6 1.9 -1
v 0.6 2 -1
v 0.6 2.1 -1
v 0.7 1.2 -1
v 0.7 1.3 -1
v 0.7 1.6 -1
v 0.8 1 -1
v 0.8 1.1 -1
v 0.8 1.2 -1
v 0.8 1.3 -1
v 0.8 1.6 -1
v 0.9 1 -1
v 0.9 1.1 -1
v 0.9 1.2 -1
v 1.1 1 -1
v 1.1 1.1 -1
v 1.1 1.2 -1
v 1.2 1 -1
v 1.2 1.1 -1
v 1.2 1.2 -1
v 1.2 1.3 -1
v 1.2 1.6 -1
v 1.3 1.2 -1
v 1.3 1.3 -1
v 1.3 1.6 -1
v 1.4 1.8 -1
v 1.4 1.9 -1
v 1.4 2 -1
v 1.4 2.1 -1
v 1.5 1.8 -1
v 1.5 1.9 -1
v 1.5 2 -1
v 1.5 2.1 -1
v 1.6 1.9 -1
v 1.6 2 -1
v 1.6 2.1 -1
v 1.7 2 -1
v 1.7 2.1 -1
v 0.3 2 -1.1
v 0.3 2.1 -1.1
v 0.4 1.9 -1.1
v 0.4 2 -1.1
v 0.4 2.1 -1.1
v 0.5 1.8 -1.1
v 0.5 1.9 -1.1
v 0.5 2 -1.1
v 0.5 2.1 -1.1
v 0.6 1.8 -1.1
v 0.6 1.9 -1.1
v 0.6 2 -1.1
v 0.6 2.1 -1.1
v 0.7 1.2 -1.1
v 0.7 1.3 -1.1
v 0.7 1.6 -1.1
v 0.8 1 -1.1
v 0.8 1.1 -1.1
v 0.8 1.2 -1.1
v 0.8 1.3 -1.1
v 0.8 1.6 -1.1
v 0.8 2.3 -1.1
v 0.8 2.4 -1.1
v 0.9 1 -1.1
v 0.9 1.1 -1.1
v 0.9 1.2 -1.1
v 0.9 2.3 -1.1
v 0.9 2.4 -1.1
v 1.1 1 -1.1
v 1.1 1.1 -1.1
v 1.1 1.2 -1.1
v 1.1 2.3 -1.1
v 1.1 2.4 -1.1
v 1.2 1 -1.1
v 1.2 1.1 -1.1
v 1.2 1.2 -1.1
v 1.2 1.3 -1.1
v 1.2 1.6 -1.1
v 1.2 2.3 -1.1
v 1.2 2.4 -1.1
v 1.3 1.2 -1.1
v 1.3 1.3 -1.1
v 1.3 1.6 -1.1
v 1.4 1.8 -1.1
v 1.4 1.9 -1.1
v 1.4 2 -1.1
v 1.4 2.1 -1.1
v 1.5 1.8 -1.1
v 1.5 1.9 -1.1
v 1.5 2 -1.1
v 1.5 2.1 -1.1
v 1.6 1.9 -1.1
v 1.6 2 -1.1
v 1.6 2.1 -1.1
v 1.7 2 -1.1
v 1.7 2.1 -1.1
v 0.6 1.8 -1.2
v 0.6 2.1 -1.2
v 0.6 2.2 -1.2
v 0.7 1.7 -1.2
v 0.7 1.8 -1.2
v 0.7 2.1 -1.2
v 0.7 2.2 -1.2
v 0.7 2.3 -1.2
v 0.8 1.2 -1.2
v 0.8 1.3 -1.2
v 0.8 1.7 -1.2
v 0.8 1.8 -1.2
v 0.9 1.2 -1.2
v 0.9 1.3 -1.2
v 0.9 1.4 -1.2
v 0.9 1.7 -1.2
v 0.9 2.2 -1.2
v 0.9 2.3 -1.2
v 0.9 2.4 -1.2
v 1.1 1.2 -1.2
v 1.1 1.3 -1.2
v 1.1 1.4 -1.2
v 1.1 1.7 -1.2
v 1.1 2.2 -1.2
v 1.1 2.3 -1.2
v 1.1 2.4 -1.2
v 1.2 1.2 -1.2
v 1.2 1.3 -1.2
v 1.2 1.7 -1.2
v 1.2 1.8 -1.2
v 1.3 1.7 -1.2
v 1.3 1.8 -1.2
v 1.3 2.1 -1.2
v 1.3 2.2 -1.2
v 1.3 2.3 -1.2
v 1.4 1.8 -1.2
v 1.4 2.1 -1.2
v 1.4 2.2 -1.2
v 0.7 1.8 -1.3
v 0.7 2.1 -1.3
v 0.7 2.2 -1.3
v 0.8 1.7 -1.3
v 0.8 1.8 -1.3
v 0.8 1.9 -1.3
v 0.8 2 -1.3
v 0.9 1.8 -1.3
v 0.9 1.9 -1.3
v 0.9 2 -1.3
v 0.9 2.1 -1.3
v 0.9 2.2 -1.3
v 0.9 2.3 -1.3
v 1.1 1.8 -1.3
v 1.1 1.9 -1.3
v 1.1 2 -1.3
v 1.1 2.1 -1.3
v 1.1 2.2 -1.3
v 1.1 2.3 -1.3
v 1.2 1.7 -1.3
v 1.2 1.8 -1.3
v 1.2 1.9 -1.3
v 1.2 2 -1.3
v 1.3 1.8 -1.3
v 1.3 2.1 -1.3
v 1.3 2.2 -1.3
v 0.8 1.9 -1.4
v 0.8 2 -1.4
v 0.9 1.8 -1.4
v 0.9 1.9 -1.4
v 0.9 2 -1.4
v 0.9 2.1 -1.4
v 1.1 1.8 -1.4
v 1.1 1.9 -1.4
v 1.1 2 -1.4
v 1.1 2.1 -1.4
v 1.2 1.9 -1.4
v 1.2 2 -1.4
v 0.8 1 -1
v 0.9 1 -1
v 1.1 1 -1
v 1.2 1 -1
v 0.8 1 -1.1
v 0.9 1 -1.1
v 1.1 1 -1.1
v 1.2 1 -1.1
v 0.8 1.2 -0.9
v 1.2 1.2 -0.9
v 0.7 1.2 -1
v 0.8 1.2 -1
v 0.9 1.2 -1
v 1.1 1.2 -1
v 1.2 1.2 -1
v 1.3 1.2 -1
v 0.7 1.2 -1.1
v 0.8 1.2 -1.1
v 0.9 1.2 -1.1
v 1.1 1.2 -1.1
v 1.2 1.2 -1.1
v 1.3 1.2 -1.1
v 0.8 1.2 -1.2
v 0.9 1.2 -1.2
v 1.1 1.2 -1.2
v 1.2 1.2 -1.2
v 0.8 1.7 -0.7
v 0.9 1.7 -0.7
v 1.1 1.7 -0.7
v 1.2 1.7 -0.7
v 0.8 1.7 -0.8
v 0.9 1.7 -0.8
v 1.1 1.7 -0.8
v 1.2 1.7 -0.8
v 0.7 1.7 -0.9
v 0.8 1.7 -0.9
v 0.9 1.7 -0.9
v 1.1 1.7 -0.9
v 1.2 1.7 -0.9
v 1.3 1.7 -0.9
v 0.7 1.7 -1.2
v 0.8 1.7 -1.2
v 0.9 1.7 -1.2
v 1.1 1.7 -1.2
v 1.2 1.7 -1.2
v 1.3 1.7 -1.2
v 0.8 1.7 -1.3
v 1.2 1.7 -1.3
v 0.9 1.8 -0.6
v 1.1 1.8 -0.6
v 0.9 1.8 -0.7
v 1.1 1.8 -0.7
v 0.7 1.8 -0.8
v 0.8 1.8 -0.8
v 0.9 1.8 -0.8
v 1.1 1.8 -0.8
v 1.2 1.8 -0.8
v 1.3 1.8 -0.8
v 0.6 1.8 -0.9
v 0.7 1.8 -0.9
v 0.8 1.8 -0.9
v 1.2 1.8 -0.9
v 1.3 1.8 -0.9
v 1.4 1.8 -0.9
v 0.5 1.8 -1
v 0.6 1.8 -1
v 1.4 1.8 -1
v 1.5 1.8 -1
v 0.5 1.8 -1.1
v 0.6 1.8 -1.1
v 1.4 1.8 -1.1
v 1.5 1.8 -1.1
v 0.6 1.8 -1.2
v 0.7 1.8 -1.2
v 0.8 1.8 -1.2
v 1.2 1.8 -1.2
v 1.3 1.8 -1.2
v 1.4 1.8 -1.2
v 0.7 1.8 -1.3
v 0.8 1.8 -1.3
v 0.9 1.8 -1.3
v 1.1 1.8 -1.3
v 1.2 1.8 -1.3
v 1.3 1.8 -1.3
v 0.9 1.8 -1.4
v 1.1 1.8 -1.4
v 0.4 1.9 -1
v 0.5 1.9 -1
v 1.5 1.9 -1
v 1.6 1.9 -1
v 0.4 1.9 -1.1
v 0.5 1.9 -1.1
v 1.5 1.9 -1.1
v 1.6 1.9 -1.1
v 0.8 1.9 -1.3
v 0.9 1.9 -1.3
v 1.1 1.9 -1.3
v 1.2 1.9 -1.3
v 0.8 1.9 -1.4
v 0.9 1.9 -1.4
v 1.1 1.9 -1.4
v 1.2 1.9 -1.4
v 0.3 2 -1
v 0.4 2 -1
v 1.6 2 -1
v 1.7 2 -1
v 0.3 2 -1.1
v 0.4 2 -1.1
v 1.6 2 -1.1
v 1.7 2 -1.1
v 0.7 1.6 -1
v 0.8 1.6 -1
v 1.2 1.6 -1
v 1.3 1.6 -1
v 0.7 1.6 -1.1
v 0.8 1.6 -1.1
v 1.2 1.6 -1.1
v 1.3 1.6 -1.1
v 0.9 2 -0.6
v 1.1 2 -0.6
v 0.9 2 -0.7
v 1.1 2 -0.7
v 0.8 2 -1.3
v 0.9 2 -1.3
v 1.1 2 -1.3
v 1.2 2 -1.3
v 0.8 2 -1.4
v 0.9 2 -1.4
v 1.1 2 -1.4
v 1.2 2 -1.4
v 0.8 2.1 -0.7
v 0.9 2.1 -0.7
v 1.1 2.1 -0.7
v 1.2 2.1 -0.7
v 0.8 2.1 -0.8
v 0.9 2.1 -0.8
v 1.1 2.1 -0.8
v 1.2 2.1 -0.8
v 0.3 2.1 -1
v 0.4 2.1 -1
v 0.5 2.1 -1
v 0.6 2.1 -1
v 1.4 2.1 -1
v 1.5 2.1 -1
v 1.6 2.1 -1
v 1.7 2.1 -1
v 0.3 2.1 -1.1
v 0.4 2.1 -1.1
v 0.5 2.1 -1.1
v 0.6 2.1 -1.1
v 1.4 2.1 -1.1
v 1.5 2.1 -1.1
v 1.6 2.1 -1.1
v 1.7 2.1 -1.1
v 0.9 2.1 -1.3
v 1.1 2.1 -1.3
v 0.9 2.1 -1.4
v 1.1 2.1 -1.4
v 0.9 2.2 -0.7
v 1.1 2.2 -0.7
v 0.7 2.2 -0.8
v 0.8 2.2 -0.8
v 0.9 2.2 -0.8
v 1.1 2.2 -0.8
v 1.2 2.2 -0.8
v 1.3 2.2 -0.8
v 0.6 2.2 -0.9
v 0.7 2.2 -0.9
v 0.8 2.2 -0.9
v 1.2 2.2 -0.9
v 1.3 2.2 -0.9
v 1.4 2.2 -0.9
v 0.6 2.2 -1.2
v 0.7 2.2 -1.2
v 0.9 2.2 -1.2
v 1.1 2.2 -1.2
v 1.3 2.2 -1.2
v 1.4 2.2 -1.2
v 0.7 2.2 -1.3
v 0.9 2.2 -1.3
v 1.1 2.2 -1.3
v 1.3 2.2 -1.3
v 0.8 2.3 -0.8
v 1.2 2.3 -0.8
v 0.7 2.3 -0.9
v 0.8 2.3 -0.9
v 1.2 2.3 -0.9
v 1.3 2.3 -0.9
v 0.8 2.3 -1.1
v 0.9 2.3 -1.1
v 1.1 2.3 -1.1
v 1.2 2.3 -1.1
v 0.7 2.3 -1.2
v 0.9 2.3 -1.2
v 1.1 2.3 -1.2
v 1.3 2.3 -1.2
v 0.9 2.3 -1.3
v 1.1 2.3 -1.3
v 0.8 2.4 -0.9
v 1.2 2.4 -0.9
v 0.8 2.4 -1.1
v 0.9 2.4 -1.1
v 1.1 2.4 -1.1
v 1.2 2.4 -1.1
v 0.9 2.4 -1.2
v 1.1 2.4 -1.2

# faces
f 3/3/1 2/3/1 1/3/1
f 4/3/1 2/3/1 3/3/1
f 7/3/1 6/3/1 5/3/1
f 8/3/1 6/3/1 7/3/1
f 11/3/1 10/3/1 9/3/1
f 12/3/1 10/3/1 11/3/1
f 17/3/1 14/3/1 13/3/1
f 18/3/1 16/3/1 15/3/1
f 19/3/1 17/3/1 13/3/1
f 20/3/1 16/3/1 18/3/1
f 21/3/1 19/3/1 13/3/1
f 22/3/1 19/3/1 21/3/1
f 23/3/1 16/3/1 20/3/1
f 24/3/1 16/3/1 23/3/1
f 25/7/1 22/7/1 21/7/1
f 25/7/1 23/7/1 22/7/1
f 25/7/1 24/7/1 23/7/1
f 26/7/1 24/7/1 25/7/1
f 29/10/1 28/10/1 27/10/1
f 30/10/1 28/10/1 29/10/1
f 31/3/1 30/3/1 29/3/1
f 32/3/1 30/3/1 31/3/1
f 36/3/1 34/3/1 33/3/1
f 37/3/1 34/3/1 36/3/1
f 39/3/1 36/3/1 35/3/1
f 40/3/1 36/3/1 39/3/1
f 41/3/1 38/3/1 37/3/1
f 42/3/1 38/3/1 41/3/1
f 43/7/1 40/7/1 39/7/1
f 44/7/1 40/7/1 43/7/1
f 45/7/1 42/7/1 41/7/1
f 46/7/1 42/7/1 45/7/1
f 47/11/1 45/11/1 44/11/1
f 48/11/1 45/11/1 47/11/1
f 51/3/1 50/3/1 49/3/1
f 52/3/1 50/3/1 51/3/1
f 54/1/1 52/1/1 51/1/1
f 55/1/1 52/1/1 54/1/1
f 57/1/1 54/1/1 53/1/1
f 58/1/1 54/1/1 57/1/1
f 59/1/1 56/1/1 55/1/1
f 60/1/1 56/1/1 59/1/1
f 61/2/1 58/2/1 57/2/1
f 62/2/1 60/2/1 59/2/1
f 65/2/1 61/2/1 57/2/1
f 65/2/1 62/2/1 61/2/1
f 66/2/1 60/2/1 62/2/1
f 66/2/1 62/2/1 65/2/1
f 68/8/1 64/8/1 63/8/1
f 69/3/1 65/3/1 64/3/1
f 69/8/1 64/8/1 68/8/1
f 70/3/1 65/3/1 69/3/1
f 71/3/1 67/3/1 66/3/1
f 72/3/1 67/3/1 71/3/1
f 75/3/1 69/3/1 68/3/1
f 76/3/1 69/3/1 75/3/1
f 77/3/1 74/3/1 73/3/1
f 78/3/1 74/3/1 77/3/1
f 79/12/1 76/12/1 75/12/1
f 80/12/1 76/12/1 79/12/1
f 83/11/1 82/11/1 81/11/1
f 84/11/1 82/11/1 83/11/1
f 86/13/1 85/13/1 84/13/1
f 87/13/1 85/13/1 86/13/1
f 92/3/1 91/3/1 90/3/1
f 93/3/1 91/3/1 92/3/1
f 94/3/1 89/3/1 88/3/1
f 95/3/1 89/3/1 94/3/1
f 100/3/1 97/3/1 96/3/1
f 101/3/1 97/3/1 100/3/1
f 102/7/1 99/7/1 98/7/1
f 103/7/1 99/7/1 102/7/1
f 107/11/1 105/11/1 104/11/1
f 108/11/1 105/11/1 107/11/1
f 109/13/1 107/13/1 106/13/1
f 110/13/1 107/13/1 109/13/1
f 113/3/1 112/3/1 111/3/1
f 114/3/1 112/3/1 113/3/1
f 115/1/1 114/1/1 113/1/1
f 116/1/1 114/1/1 115/1/1
f 119/8/1 118/8/1 117/8/1
f 120/8/1 118/8/1 119/8/1
f 121/3/2 122/3/2 123/3/2
f 123/3/2 122/3/2 124/3/2
f 123/1/2 124/1/2 125/1/2
f 125/1/2 124/1/2 126/1/2
f 127/8/2 128/8/2 129/8/2
f 129/8/2 128/8/2 130/8/2
f 133/3/2 134/3/2 135/3/2
f 135/3/2 134/3/2 136/3/2
f 131/3/2 132/3/2 137/3/2
f 137/3/2 132/3/2 138/3/2
f 139/3/2 140/3/2 143/3/2
f 143/3/2 140/3/2 144/3/2
f 141/7/2 142/7/2 145/7/2
f 145/7/2 142/7/2 146/7/2
f 147/11/2 148/11/2 150/11/2
f 150/11/2 148/11/2 151/11/2
f 149/13/2 150/13/2 152/13/2
f 152/13/2 150/13/2 153/13/2
f 154/3/2 155/3/2 156/3/2
f 156/3/2 155/3/2 157/3/2
f 156/1/2 157/1/2 159/1/2
f 159/1/2 157/1/2 160/1/2
f 158/1/2 159/1/2 162/1/2
f 162/1/2 159/1/2 163/1/2
f 160/1/2 161/1/2 164/1/2
f 164/1/2 161/1/2 165/1/2
f 162/2/2 163/2/2 166/2/2
f 164/2/2 165/2/2 167/2/2
f 162/2/2 166/2/2 170/2/2
f 166/2/2 167/2/2 170/2/2
f 167/2/2 165/2/2 171/2/2
f 170/2/2 167/2/2 171/2/2
f 168/8/2 169/8/2 173/8/2
f 169/3/2 170/3/2 174/3/2
f 173/8/2 169/8/2 174/8/2
f 174/3/2 170/3/2 175/3/2
f 171/3/2 172/3/2 176/3/2
f 176/3/2 172/3/2 177/3/2
f 173/3/2 174/3/2 180/3/2
f 180/3/2 174/3/2 181/3/2
f 178/3/2 179/3/2 182/3/2
f 182/3/2 179/3/2 183/3/2
f 180/12/2 181/12/2 184/12/2
f 184/12/2 181/12/2 185/12/2
f 186/11/2 187/11/2 188/11/2
f 188/11/2 187/11/2 189/11/2
f 189/13/2 190/13/2 191/13/2
f 191/13/2 190/13/2 192/13/2
f 193/10/2 194/10/2 195/10/2
f 195/10/2 194/10/2 196/10/2
f 195/3/2 196/3/2 197/3/2
f 197/3/2 196/3/2 198/3/2
f 199/3/2 200/3/2 202/3/2
f 202/3/2 200/3/2 203/3/2
f 201/3/2 202/3/2 205/3/2
f 205/3/2 202/3/2 206/3/2
f 203/3/2 204/3/2 207/3/2
f 207/3/2 204/3/2 208/3/2
f 205/7/2 206/7/2 209/7/2
f 209/7/2 206/7/2 210/7/2
f 207/7/2 208/7/2 211/7/2
f 211/7/2 208/7/2 212/7/2
f 210/11/2 211/11/2 213/11/2
f 213/11/2 211/11/2 214/11/2
f 215/3/2 216/3/2 219/3/2
f 217/3/2 218/3/2 220/3/2
f 215/3/2 219/3/2 221/3/2
f 220/3/2 218/3/2 222/3/2
f 215/3/2 221/3/2 223/3/2
f 223/3/2 221/3/2 224/3/2
f 222/3/2 218/3/2 225/3/2
f 225/3/2 218/3/2 226/3/2
f 223/7/2 224/7/2 227/7/2
f 224/7/2 225/7/2 227/7/2
f 225/7/2 226/7/2 227/7/2
f 227/7/2 226/7/2 228/7/2
f 229/3/2 230/3/2 231/3/2
f 231/3/2 230/3/2 232/3/2
f 233/3/2 234/3/2 235/3/2
f 235/3/2 234/3/2 236/3/2
f 237/3/2 238/3/2 239/3/2
f 239/3/2 238/3/2 240/3/2
f 243/3/3 242/3/3 241/3/3
f 244/3/3 242/3/3 243/3/3
f 249/8/3 246/8/3 245/8/3
f 250/3/3 247/3/3 246/3/3
f 250/8/3 246/8/3 249/8/3
f 251/12/3 248/12/3 247/12/3
f 251/3/3 247/3/3 250/3/3
f 252/12/3 248/12/3 251/12/3
f 256/3/3 252/3/3 251/3/3
f 257/7/3 253/7/3 252/7/3
f 257/3/3 252/3/3 256/3/3
f 258/7/3 253/7/3 257/7/3
f 259/8/3 255/8/3 254/8/3
f 260/3/3 256/3/3 255/3/3
f 260/8/3 255/8/3 259/8/3
f 261/12/3 257/12/3 256/12/3
f 261/3/3 256/3/3 260/3/3
f 262/12/3 257/12/3 261/12/3
f 266/3/3 264/3/3 263/3/3
f 267/3/3 264/3/3 266/3/3
f 268/7/3 265/7/3 264/7/3
f 268/3/3 264/3/3 267/3/3
f 269/7/3 265/7/3 268/7/3
f 273/7/3 269/7/3 268/7/3
f 274/11/3 270/11/3 269/11/3
f 274/7/3 269/7/3 273/7/3
f 275/10/3 272/10/3 271/10/3
f 276/10/3 272/10/3 275/10/3
f 278/11/3 270/11/3 274/11/3
f 281/7/3 278/7/3 277/7/3
f 282/11/3 270/11/3 278/11/3
f 282/7/3 278/7/3 281/7/3
f 283/11/3 270/11/3 282/11/3
f 284/3/3 280/3/3 279/3/3
f 284/3/3 281/3/3 280/3/3
f 285/7/3 282/7/3 281/7/3
f 285/3/3 281/3/3 284/3/3
f 286/7/3 282/7/3 285/7/3
f 291/3/3 288/3/3 287/3/3
f 292/7/3 289/7/3 288/7/3
f 292/3/3 288/3/3 291/3/3
f 293/7/3 289/7/3 292/7/3
f 297/3/3 291/3/3 290/3/3
f 298/3/3 291/3/3 297/3/3
f 299/11/3 294/11/3 293/11/3
f 300/11/3 294/11/3 299/11/3
f 302/1/3 296/1/3 295/1/3
f 302/2/3 297/2/3 296/2/3
f 303/2/3 297/2/3 302/2/3
f 304/2/3 297/2/3 303/2/3
f 305/1/3 302/1/3 295/1/3
f 305/1/3 303/1/3 302/1/3
f 306/3/3 304/3/3 303/3/3
f 306/1/3 303/1/3 305/1/3
f 307/3/3 304/3/3 306/3/3
f 308/1/3 305/1/3 295/1/3
f 309/2/3 306/2/3 305/2/3
f 309/1/3 305/1/3 308/1/3
f 309/2/3 307/2/3 306/2/3
f 310/2/3 307/2/3 309/2/3
f 313/13/3 301/13/3 300/13/3
f 314/13/3 301/13/3 313/13/3
f 315/3/3 311/3/3 310/3/3
f 316/3/3 311/3/3 315/3/3
f 318/11/3 313/11/3 312/11/3
f 319/11/3 313/11/3 318/11/3
f 320/3/3 317/3/3 316/3/3
f 321/7/3 318/7/3 317/7/3
f 321/3/3 317/3/3 320/3/3
f 322/7/3 318/7/3 321/7/3
f 326/3/3 324/3/3 323/3/3
f 327/3/3 324/3/3 326/3/3
f 329/3/3 326/3/3 325/3/3
f 330/5/3 327/5/3 326/5/3
f 330/3/3 326/3/3 329/3/3
f 331/5/3 327/5/3 330/5/3
f 332/3/3 329/3/3 328/3/3
f 333/5/3 330/5/3 329/5/3
f 333/3/3 329/3/3 332/3/3
f 334/4/3 331/4/3 330/4/3
f 334/5/3 330/5/3 333/5/3
f 335/4/3 331/4/3 334/4/3
f 341/10/3 337/10/3 336/10/3
f 342/3/3 338/3/3 337/3/3
f 342/10/3 337/10/3 341/10/3
f 343/3/3 338/3/3 342/3/3
f 344/3/3 340/3/3 339/3/3
f 345/1/3 341/1/3 340/1/3
f 345/3/3 340/3/3 344/3/3
f 346/1/3 341/1/3 345/1/3
f 350/3/3 348/3/3 347/3/3
f 351/1/3 349/1/3 348/1/3
f 351/3/3 348/3/3 350/3/3
f 352/1/3 349/1/3 351/1/3
f 355/10/3 353/10/3 352/10/3
f 356/3/3 354/3/3 353/3/3
f 356/10/3 353/10/3 355/10/3
f 357/3/3 354/3/3 356/3/3
f 362/3/3 359/3/3 358/3/3
f 363/5/3 360/5/3 359/5/3
f 363/3/3 359/3/3 362/3/3
f 364/4/3 361/4/3 360/4/3
f 364/5/3 360/5/3 363/5/3
f 365/4/3 361/4/3 364/4/3
f 366/3/3 364/3/3 363/3/3
f 367/5/3 365/5/3 364/5/3
f 367/3/3 364/3/3 366/3/3
f 368/5/3 365/5/3 367/5/3
f 369/3/3 368/3/3 367/3/3
f 370/3/3 368/3/3 369/3/3
f 371/3/4 372/3/4 374/3/4
f 374/3/4 372/3/4 375/3/4
f 373/3/4 374/3/4 377/3/4
f 374/5/4 375/5/4 378/5/4
f 377/3/4 374/3/4 378/3/4
f 378/5/4 375/5/4 379/5/4
f 376/3/4 377/3/4 380/3/4
f 377/5/4 378/5/4 381/5/4
f 380/3/4 377/3/4 381/3/4
f 378/4/4 379/4/4 382/4/4
f 381/5/4 378/5/4 382/5/4
f 382/4/4 379/4/4 383/4/4
f 384/10/4 385/10/4 389/10/4
f 385/3/4 386/3/4 390/3/4
f 389/10/4 385/10/4 390/10/4
f 390/3/4 386/3/4 391/3/4
f 387/3/4 388/3/4 394/3/4
f 388/1/4 389/1/4 395/1/4
f 394/3/4 388/3/4 395/3/4
f 395/1/4 389/1/4 396/1/4
f 392/13/4 393/13/4 397/13/4
f 397/13/4 393/13/4 398/13/4
f 399/3/4 400/3/4 404/3/4
f 400/1/4 401/1/4 405/1/4
f 404/3/4 400/3/4 405/3/4
f 405/1/4 401/1/4 406/1/4
f 402/13/4 403/13/4 409/13/4
f 409/13/4 403/13/4 410/13/4
f 406/10/4 407/10/4 411/10/4
f 407/3/4 408/3/4 412/3/4
f 411/10/4 407/10/4 412/10/4
f 412/3/4 408/3/4 413/3/4
f 414/3/4 415/3/4 418/3/4
f 415/5/4 416/5/4 419/5/4
f 418/3/4 415/3/4 419/3/4
f 416/4/4 417/4/4 420/4/4
f 419/5/4 416/5/4 420/5/4
f 420/4/4 417/4/4 421/4/4
f 419/3/4 420/3/4 422/3/4
f 420/5/4 421/5/4 423/5/4
f 422/3/4 420/3/4 423/3/4
f 423/5/4 421/5/4 424/5/4
f 423/3/4 424/3/4 425/3/4
f 425/3/4 424/3/4 426/3/4
f 427/3/4 428/3/4 431/3/4
f 428/7/4 429/7/4 432/7/4
f 431/3/4 428/3/4 432/3/4
f 432/7/4 429/7/4 433/7/4
f 430/3/4 431/3/4 437/3/4
f 437/3/4 431/3/4 438/3/4
f 435/1/4 436/1/4 439/1/4
f 436/2/4 437/2/4 440/2/4
f 439/1/4 436/1/4 440/1/4
f 440/2/4 437/2/4 441/2/4
f 441/2/4 437/2/4 442/2/4
f 433/11/4 434/11/4 443/11/4
f 443/11/4 434/11/4 444/11/4
f 439/6/4 440/6/4 446/6/4
f 440/1/4 441/1/4 447/1/4
f 446/6/4 440/6/4 447/6/4
f 441/3/4 442/3/4 448/3/4
f 447/1/4 441/1/4 448/1/4
f 448/3/4 442/3/4 449/3/4
f 444/13/4 445/13/4 451/13/4
f 451/13/4 445/13/4 452/13/4
f 446/1/4 447/1/4 453/1/4
f 448/2/4 449/2/4 454/2/4
f 453/1/4 447/1/4 454/1/4
f 447/2/4 448/2/4 454/2/4
f 454/2/4 449/2/4 455/2/4
f 455/3/4 456/3/4 457/3/4
f 457/3/4 456/3/4 458/3/4
f 450/11/4 451/11/4 460/11/4
f 460/11/4 451/11/4 461/11/4
f 458/3/4 459/3/4 462/3/4
f 459/7/4 460/7/4 463/7/4
f 462/3/4 459/3/4 463/3/4
f 463/7/4 460/7/4 464/7/4
f 465/3/4 466/3/4 469/3/4
f 469/3/4 466/3/4 470/3/4
f 470/3/4 466/3/4 471/3/4
f 468/3/4 469/3/4 472/3/4
f 469/3/4 470/3/4 472/3/4
f 472/3/4 470/3/4 473/3/4
f 471/3/4 466/3/4 474/3/4
f 466/7/4 467/7/4 475/7/4
f 474/3/4 466/3/4 475/3/4
f 475/7/4 467/7/4 476/7/4
f 468/3/4 472/3/4 478/3/4
f 475/7/4 476/7/4 481/7/4
f 476/11/4 477/11/4 482/11/4
f 481/7/4 476/7/4 482/7/4
f 482/11/4 477/11/4 483/11/4
f 478/3/4 479/3/4 484/3/4
f 468/3/4 478/3/4 484/3/4
f 484/3/4 479/3/4 485/3/4
f 485/3/4 479/3/4 486/3/4
f 480/3/4 481/3/4 487/3/4
f 485/3/4 486/3/4 488/3/4
f 486/3/4 487/3/4 488/3/4
f 487/3/4 481/3/4 489/3/4
f 488/3/4 487/3/4 489/3/4
f 481/7/4 482/7/4 489/7/4
f 489/7/4 482/7/4 490/7/4
f 491/3/4 492/3/4 494/3/4
f 494/3/4 492/3/4 495/3/4
f 493/3/4 494/3/4 497/3/4
f 495/3/4 496/3/4 497/3/4
f 494/3/4 495/3/4 497/3/4
f 497/3/4 496/3/4 498/3/4
f 498/3/4 496/3/4 499/3/4
f 499/3/4 496/3/4 500/3/4
f 498/3/4 499/3/4 501/3/4
f 501/3/4 499/3/4 502/3/4
f 507/3/5 504/3/5 503/3/5
f 508/3/5 504/3/5 507/3/5
f 509/3/5 506/3/5 505/3/5
f 510/3/5 506/3/5 509/3/5
f 514/1/5 512/1/5 511/1/5
f 515/1/5 512/1/5 514/1/5
f 516/1/5 512/1/5 515/1/5
f 517/1/5 512/1/5 516/1/5
f 519/10/5 514/10/5 513/10/5
f 520/10/5 514/10/5 519/10/5
f 521/1/5 516/1/5 515/1/5
f 522/1/5 516/1/5 521/1/5
f 523/10/5 518/10/5 517/10/5
f 524/10/5 518/10/5 523/10/5
f 525/1/5 521/1/5 520/1/5
f 526/6/5 522/6/5 521/6/5
f 526/1/5 521/1/5 525/1/5
f 527/1/5 523/1/5 522/1/5
f 527/6/5 522/6/5 526/6/5
f 528/1/5 523/1/5 527/1/5
f 533/8/5 530/8/5 529/8/5
f 534/8/5 530/8/5 533/8/5
f 535/8/5 532/8/5 531/8/5
f 536/8/5 532/8/5 535/8/5
f 538/3/5 534/3/5 533/3/5
f 539/10/5 535/10/5 534/10/5
f 539/3/5 534/3/5 538/3/5
f 540/3/5 536/3/5 535/3/5
f 540/10/5 535/10/5 539/10/5
f 541/3/5 536/3/5 540/3/5
f 543/3/5 538/3/5 537/3/5
f 544/3/5 538/3/5 543/3/5
f 547/3/5 542/3/5 541/3/5
f 548/3/5 542/3/5 547/3/5
f 549/3/5 546/3/5 545/3/5
f 549/3/5 547/3/5 546/3/5
f 549/3/5 545/3/5 544/3/5
f 550/3/5 547/3/5 549/3/5
f 553/3/5 552/3/5 551/3/5
f 554/3/5 552/3/5 553/3/5
f 557/3/5 554/3/5 553/3/5
f 558/3/5 554/3/5 557/3/5
f 562/3/5 556/3/5 555/3/5
f 563/3/5 556/3/5 562/3/5
f 564/3/5 560/3/5 559/3/5
f 565/3/5 560/3/5 564/3/5
f 568/3/5 562/3/5 561/3/5
f 569/3/5 566/3/5 565/3/5
f 571/3/5 568/3/5 567/3/5
f 572/3/5 562/3/5 568/3/5
f 572/3/5 568/3/5 571/3/5
f 573/3/5 570/3/5 569/3/5
f 573/3/5 569/3/5 565/3/5
f 574/3/5 570/3/5 573/3/5
f 575/3/5 562/3/5 572/3/5
f 576/3/5 562/3/5 575/3/5
f 579/3/5 573/3/5 565/3/5
f 580/3/5 573/3/5 579/3/5
f 581/3/5 577/3/5 576/3/5
f 582/3/5 577/3/5 581/3/5
f 585/3/5 579/3/5 578/3/5
f 586/3/5 579/3/5 585/3/5
f 587/3/5 584/3/5 583/3/5
f 588/3/5 584/3/5 587/3/5
f 593/3/5 590/3/5 589/3/5
f 594/3/5 590/3/5 593/3/5
f 595/3/5 592/3/5 591/3/5
f 596/3/5 592/3/5 595/3/5
f 601/3/5 598/3/5 597/3/5
f 602/3/5 598/3/5 601/3/5
f 603/3/5 600/3/5 599/3/5
f 604/3/5 600/3/5 603/3/5
f 609/3/5 606/3/5 605/3/5
f 610/3/5 606/3/5 609/3/5
f 611/3/5 608/3/5 607/3/5
f 612/3/5 608/3/5 611/3/5
f 613/3/6 614/3/6 617/3/6
f 617/3/6 614/3/6 618/3/6
f 615/3/6 616/3/6 619/3/6
f 619/3/6 616/3/6 620/3/6
f 621/3/6 622/3/6 623/3/6
f 623/3/6 622/3/6 624/3/6
f 625/3/6 626/3/6 629/3/6
f 629/3/6 626/3/6 630/3/6
f 627/3/6 628/3/6 631/3/6
f 631/3/6 628/3/6 632/3/6
f 633/12/6 634/12/6 637/12/6
f 637/12/6 634/12/6 638/12/6
f 635/12/6 636/12/6 639/12/6
f 639/12/6 636/12/6 640/12/6
f 641/3/6 642/3/6 649/3/6
f 642/5/6 643/5/6 650/5/6
f 649/3/6 642/3/6 650/3/6
f 643/4/6 644/4/6 651/4/6
f 650/5/6 643/5/6 651/5/6
f 651/4/6 644/4/6 652/4/6
f 645/4/6 646/4/6 653/4/6
f 646/5/6 647/5/6 654/5/6
f 653/4/6 646/4/6 654/4/6
f 647/3/6 648/3/6 655/3/6
f 654/5/6 647/5/6 655/5/6
f 655/3/6 648/3/6 656/3/6
f 657/3/6 658/3/6 659/3/6
f 659/3/6 658/3/6 660/3/6
f 661/7/6 662/7/6 665/7/6
f 665/7/6 662/7/6 666/7/6
f 663/7/6 664/7/6 670/7/6
f 670/7/6 664/7/6 671/7/6
f 667/7/6 668/7/6 672/7/6
f 672/7/6 668/7/6 673/7/6
f 669/7/6 670/7/6 675/7/6
f 675/7/6 670/7/6 676/7/6
f 673/7/6 674/7/6 679/7/6
f 679/7/6 674/7/6 680/7/6
f 676/7/6 677/7/6 681/7/6
f 681/7/6 677/7/6 682/7/6
f 678/7/6 679/7/6 683/7/6
f 683/7/6 679/7/6 684/7/6
f 685/11/6 686/11/6 688/11/6
f 688/11/6 686/11/6 689/11/6
f 687/11/6 688/11/6 691/11/6
f 689/11/6 690/11/6 694/11/6
f 691/11/6 692/11/6 695/11/6
f 687/11/6 691/11/6 695/11/6
f 695/11/6 692/11/6 696/11/6
f 693/11/6 694/11/6 697/11/6
f 694/11/6 690/11/6 698/11/6
f 697/11/6 694/11/6 698/11/6
f 696/11/6 697/11/6 699/11/6
f 699/11/6 697/11/6 700/11/6
f 701/13/6 702/13/6 703/13/6
f 703/13/6 702/13/6 704/13/6
f 704/13/6 702/13/6 705/13/6
f 705/13/6 702/13/6 706/13/6
f 704/13/6 705/13/6 707/13/6
f 707/13/6 705/13/6 708/13/6
