# MagicaVoxel @ Ephtracy

# group
o 

# material
mtllib Large Wood Hut.mtl
usemtl palette

# normals
vn -1 0 0
vn 1 0 0
vn 0 0 1
vn 0 0 -1
vn 0 -1 0
vn 0 1 0

# texcoords
vt 0.630859 0.5
vt 0.880859 0.5
vt 0.908203 0.5
vt 0.916016 0.5

# verts
v -0.4 0 0.4
v -0.4 0 -0.4
v -0.4 0.1 0.3
v -0.4 0.1 -0.3
v -0.4 0.3 0.3
v -0.4 0.3 -0.3
v -0.4 0.4 0.4
v -0.4 0.4 -0.4
v -0.3 0.1 0.3
v -0.3 0.1 0.2
v -0.3 0.1 0.1
v -0.3 0.1 -0.1
v -0.3 0.1 -0.2
v -0.3 0.1 -0.3
v -0.3 0.2 0.2
v -0.3 0.2 0.1
v -0.3 0.2 -0.1
v -0.3 0.2 -0.2
v -0.3 0.3 0.3
v -0.3 0.3 -0.3
v -0.3 0.4 0.4
v -0.3 0.4 -0.4
v -0.3 0.5 0.4
v -0.3 0.5 -0.4
v -0.2 0.5 0.4
v -0.2 0.5 -0.4
v -0.2 0.6 0.4
v -0.2 0.6 -0.4
v -0.1 0.6 0.4
v -0.1 0.6 -0.4
v -0.1 0.7 0.4
v -0.1 0.7 -0.4
v 0.1 0.5 0.4
v 0.1 0.5 0.3
v 0.1 0.5 -0.3
v 0.1 0.5 -0.4
v 0.1 0.6 0.4
v 0.1 0.6 0.3
v 0.1 0.6 -0.3
v 0.1 0.6 -0.4
v 0.2 0.4 0.4
v 0.2 0.4 0.3
v 0.2 0.4 -0.3
v 0.2 0.4 -0.4
v 0.2 0.5 0.4
v 0.2 0.5 0.3
v 0.2 0.5 -0.3
v 0.2 0.5 -0.4
v 0.3 0 0.4
v 0.3 0 0.3
v 0.3 0.1 -0.3
v 0.3 0.1 -0.4
v 0.3 0.3 0.4
v 0.3 0.3 0.3
v 0.3 0.3 -0.3
v 0.3 0.3 -0.4
v -0.3 0 0.4
v -0.3 0 0.3
v -0.3 0.1 -0.3
v -0.3 0.1 -0.4
v -0.3 0.3 0.4
v -0.3 0.3 0.3
v -0.3 0.3 -0.3
v -0.3 0.3 -0.4
v -0.2 0.4 0.4
v -0.2 0.4 0.3
v -0.2 0.4 -0.3
v -0.2 0.4 -0.4
v -0.2 0.5 0.4
v -0.2 0.5 0.3
v -0.2 0.5 -0.3
v -0.2 0.5 -0.4
v -0.1 0.5 0.4
v -0.1 0.5 0.3
v -0.1 0.5 -0.3
v -0.1 0.5 -0.4
v -0.1 0.6 0.4
v -0.1 0.6 0.3
v -0.1 0.6 -0.3
v -0.1 0.6 -0.4
v 0.1 0.6 0.4
v 0.1 0.6 -0.4
v 0.1 0.7 0.4
v 0.1 0.7 -0.4
v 0.2 0.5 0.4
v 0.2 0.5 -0.4
v 0.2 0.6 0.4
v 0.2 0.6 -0.4
v 0.3 0.1 0.3
v 0.3 0.1 0.2
v 0.3 0.1 0.1
v 0.3 0.1 -0.1
v 0.3 0.1 -0.2
v 0.3 0.1 -0.3
v 0.3 0.2 0.2
v 0.3 0.2 0.1
v 0.3 0.2 -0.1
v 0.3 0.2 -0.2
v 0.3 0.3 0.3
v 0.3 0.3 -0.3
v 0.3 0.4 0.4
v 0.3 0.4 -0.4
v 0.3 0.5 0.4
v 0.3 0.5 -0.4
v 0.4 0 0.4
v 0.4 0 -0.4
v 0.4 0.1 0.3
v 0.4 0.1 -0.3
v 0.4 0.3 0.3
v 0.4 0.3 -0.3
v 0.4 0.4 0.4
v 0.4 0.4 -0.4
v -0.4 0 0.4
v -0.4 0.4 0.4
v -0.3 0 0.4
v -0.3 0.3 0.4
v -0.3 0.4 0.4
v -0.3 0.5 0.4
v -0.2 0.4 0.4
v -0.2 0.5 0.4
v -0.2 0.6 0.4
v -0.1 0.5 0.4
v -0.1 0.6 0.4
v -0.1 0.7 0.4
v 0.1 0.5 0.4
v 0.1 0.6 0.4
v 0.1 0.7 0.4
v 0.2 0.4 0.4
v 0.2 0.5 0.4
v 0.2 0.6 0.4
v 0.3 0 0.4
v 0.3 0.3 0.4
v 0.3 0.4 0.4
v 0.3 0.5 0.4
v 0.4 0 0.4
v 0.4 0.4 0.4
v -0.3 0 0.3
v -0.3 0.3 0.3
v -0.2 0 0.3
v -0.2 0.2 0.3
v -0.2 0.4 0.3
v -0.2 0.5 0.3
v -0.1 0 0.3
v -0.1 0.2 0.3
v -0.1 0.4 0.3
v -0.1 0.5 0.3
v -0.1 0.6 0.3
v 7.45058e-009 0.1 0.3
v 7.45058e-009 0.2 0.3
v 0.1 0.4 0.3
v 0.1 0.5 0.3
v 0.1 0.6 0.3
v 0.2 0.1 0.3
v 0.2 0.2 0.3
v 0.2 0.4 0.3
v 0.2 0.5 0.3
v 0.3 0 0.3
v 0.3 0.3 0.3
v -0.4 0.1 -0.3
v -0.4 0.3 -0.3
v -0.3 0.1 -0.3
v -0.3 0.3 -0.3
v 0.3 0.1 -0.3
v 0.3 0.3 -0.3
v 0.4 0.1 -0.3
v 0.4 0.3 -0.3
v -0.4 0.1 0.3
v -0.4 0.3 0.3
v -0.3 0.1 0.3
v -0.3 0.3 0.3
v 0.3 0.1 0.3
v 0.3 0.3 0.3
v 0.4 0.1 0.3
v 0.4 0.3 0.3
v -0.3 0.1 -0.3
v -0.3 0.3 -0.3
v -0.2 0.1 -0.3
v -0.2 0.2 -0.3
v -0.2 0.4 -0.3
v -0.2 0.5 -0.3
v -0.1 0.1 -0.3
v -0.1 0.2 -0.3
v -0.1 0.4 -0.3
v -0.1 0.5 -0.3
v -0.1 0.6 -0.3
v 0.1 0.1 -0.3
v 0.1 0.2 -0.3
v 0.1 0.4 -0.3
v 0.1 0.5 -0.3
v 0.1 0.6 -0.3
v 0.2 0.1 -0.3
v 0.2 0.2 -0.3
v 0.2 0.4 -0.3
v 0.2 0.5 -0.3
v 0.3 0.1 -0.3
v 0.3 0.3 -0.3
v -0.4 0 -0.4
v -0.4 0.4 -0.4
v -0.3 0.1 -0.4
v -0.3 0.3 -0.4
v -0.3 0.4 -0.4
v -0.3 0.5 -0.4
v -0.2 0.4 -0.4
v -0.2 0.5 -0.4
v -0.2 0.6 -0.4
v -0.1 0.5 -0.4
v -0.1 0.6 -0.4
v -0.1 0.7 -0.4
v 0.1 0.5 -0.4
v 0.1 0.6 -0.4
v 0.1 0.7 -0.4
v 0.2 0.4 -0.4
v 0.2 0.5 -0.4
v 0.2 0.6 -0.4
v 0.3 0.1 -0.4
v 0.3 0.3 -0.4
v 0.3 0.4 -0.4
v 0.3 0.5 -0.4
v 0.4 0 -0.4
v 0.4 0.4 -0.4
v -0.4 0 0.4
v -0.3 0 0.4
v 0.3 0 0.4
v 0.4 0 0.4
v -0.3 0 0.3
v -0.2 0 0.3
v -0.1 0 0.3
v 0.3 0 0.3
v -0.2 0 0.2
v -0.1 0 0.2
v -0.3 0 -0.3
v 0.3 0 -0.3
v -0.4 0 -0.4
v 0.4 0 -0.4
v -0.3 0.3 0.4
v 0.3 0.3 0.4
v -0.4 0.3 0.3
v -0.3 0.3 0.3
v 0.3 0.3 0.3
v 0.4 0.3 0.3
v -0.4 0.3 -0.3
v -0.3 0.3 -0.3
v 0.3 0.3 -0.3
v 0.4 0.3 -0.3
v -0.3 0.3 -0.4
v 0.3 0.3 -0.4
v -0.2 0.5 0.4
v -0.1 0.5 0.4
v 0.1 0.5 0.4
v 0.2 0.5 0.4
v -0.2 0.5 0.3
v -0.1 0.5 0.3
v 0.1 0.5 0.3
v 0.2 0.5 0.3
v -0.2 0.5 -0.3
v -0.1 0.5 -0.3
v 0.1 0.5 -0.3
v 0.2 0.5 -0.3
v -0.2 0.5 -0.4
v -0.1 0.5 -0.4
v 0.1 0.5 -0.4
v 0.2 0.5 -0.4
v -0.1 0.6 0.4
v 0.1 0.6 0.4
v -0.1 0.6 0.3
v 0.1 0.6 0.3
v -0.1 0.6 -0.3
v 0.1 0.6 -0.3
v -0.1 0.6 -0.4
v 0.1 0.6 -0.4
v -0.4 0.1 0.3
v -0.3 0.1 0.3
v 0.3 0.1 0.3
v 0.4 0.1 0.3
v -0.3 0.1 0.2
v 0.3 0.1 0.2
v -0.3 0.1 0.1
v 0.3 0.1 0.1
v -0.3 0.1 -0.1
v 0.3 0.1 -0.1
v -0.3 0.1 -0.2
v 0.3 0.1 -0.2
v -0.4 0.1 -0.3
v -0.3 0.1 -0.3
v -0.2 0.1 -0.3
v -0.1 0.1 -0.3
v 0.1 0.1 -0.3
v 0.2 0.1 -0.3
v 0.3 0.1 -0.3
v 0.4 0.1 -0.3
v -0.3 0.1 -0.4
v 0.3 0.1 -0.4
v -0.4 0.4 0.4
v -0.3 0.4 0.4
v -0.2 0.4 0.4
v 0.2 0.4 0.4
v 0.3 0.4 0.4
v 0.4 0.4 0.4
v -0.2 0.4 0.3
v -0.1 0.4 0.3
v 0.1 0.4 0.3
v 0.2 0.4 0.3
v -0.2 0.4 -0.3
v -0.1 0.4 -0.3
v 0.1 0.4 -0.3
v 0.2 0.4 -0.3
v -0.4 0.4 -0.4
v -0.3 0.4 -0.4
v -0.2 0.4 -0.4
v 0.2 0.4 -0.4
v 0.3 0.4 -0.4
v 0.4 0.4 -0.4
v -0.3 0.5 0.4
v -0.2 0.5 0.4
v 0.2 0.5 0.4
v 0.3 0.5 0.4
v -0.3 0.5 -0.4
v -0.2 0.5 -0.4
v 0.2 0.5 -0.4
v 0.3 0.5 -0.4
v -0.2 0.6 0.4
v -0.1 0.6 0.4
v 0.1 0.6 0.4
v 0.2 0.6 0.4
v -0.2 0.6 -0.4
v -0.1 0.6 -0.4
v 0.1 0.6 -0.4
v 0.2 0.6 -0.4
v -0.1 0.7 0.4
v 0.1 0.7 0.4
v -0.1 0.7 -0.4
v 0.1 0.7 -0.4

# faces
f 3/4/1 2/4/1 1/4/1
f 4/4/1 2/4/1 3/4/1
f 5/4/1 3/4/1 1/4/1
f 6/4/1 2/4/1 4/4/1
f 7/4/1 5/4/1 1/4/1
f 7/4/1 6/4/1 5/4/1
f 8/4/1 2/4/1 6/4/1
f 8/4/1 6/4/1 7/4/1
f 15/3/1 10/3/1 9/3/1
f 15/1/1 11/1/1 10/1/1
f 16/3/1 12/3/1 11/3/1
f 16/1/1 11/1/1 15/1/1
f 17/1/1 13/1/1 12/1/1
f 17/3/1 12/3/1 16/3/1
f 18/3/1 14/3/1 13/3/1
f 18/1/1 13/1/1 17/1/1
f 19/3/1 17/3/1 16/3/1
f 19/3/1 16/3/1 15/3/1
f 19/3/1 18/3/1 17/3/1
f 19/3/1 15/3/1 9/3/1
f 20/3/1 14/3/1 18/3/1
f 20/3/1 18/3/1 19/3/1
f 23/4/1 22/4/1 21/4/1
f 24/4/1 22/4/1 23/4/1
f 27/4/1 26/4/1 25/4/1
f 28/4/1 26/4/1 27/4/1
f 31/4/1 30/4/1 29/4/1
f 32/4/1 30/4/1 31/4/1
f 37/4/1 34/4/1 33/4/1
f 38/4/1 34/4/1 37/4/1
f 39/4/1 36/4/1 35/4/1
f 40/4/1 36/4/1 39/4/1
f 45/4/1 42/4/1 41/4/1
f 46/4/1 42/4/1 45/4/1
f 47/4/1 44/4/1 43/4/1
f 48/4/1 44/4/1 47/4/1
f 53/4/1 50/4/1 49/4/1
f 54/4/1 50/4/1 53/4/1
f 55/4/1 52/4/1 51/4/1
f 56/4/1 52/4/1 55/4/1
f 57/4/2 58/4/2 61/4/2
f 61/4/2 58/4/2 62/4/2
f 59/4/2 60/4/2 63/4/2
f 63/4/2 60/4/2 64/4/2
f 65/4/2 66/4/2 69/4/2
f 69/4/2 66/4/2 70/4/2
f 67/4/2 68/4/2 71/4/2
f 71/4/2 68/4/2 72/4/2
f 73/4/2 74/4/2 77/4/2
f 77/4/2 74/4/2 78/4/2
f 75/4/2 76/4/2 79/4/2
f 79/4/2 76/4/2 80/4/2
f 81/4/2 82/4/2 83/4/2
f 83/4/2 82/4/2 84/4/2
f 85/4/2 86/4/2 87/4/2
f 87/4/2 86/4/2 88/4/2
f 89/3/2 90/3/2 95/3/2
f 90/1/2 91/1/2 95/1/2
f 91/3/2 92/3/2 96/3/2
f 95/1/2 91/1/2 96/1/2
f 92/1/2 93/1/2 97/1/2
f 96/3/2 92/3/2 97/3/2
f 93/3/2 94/3/2 98/3/2
f 97/1/2 93/1/2 98/1/2
f 96/3/2 97/3/2 99/3/2
f 95/3/2 96/3/2 99/3/2
f 97/3/2 98/3/2 99/3/2
f 89/3/2 95/3/2 99/3/2
f 98/3/2 94/3/2 100/3/2
f 99/3/2 98/3/2 100/3/2
f 101/4/2 102/4/2 103/4/2
f 103/4/2 102/4/2 104/4/2
f 105/4/2 106/4/2 107/4/2
f 107/4/2 106/4/2 108/4/2
f 105/4/2 107/4/2 109/4/2
f 108/4/2 106/4/2 110/4/2
f 105/4/2 109/4/2 111/4/2
f 109/4/2 110/4/2 111/4/2
f 110/4/2 106/4/2 112/4/2
f 111/4/2 110/4/2 112/4/2
f 115/4/3 114/4/3 113/4/3
f 116/4/3 114/4/3 115/4/3
f 117/4/3 114/4/3 116/4/3
f 119/4/3 118/4/3 117/4/3
f 119/4/3 117/4/3 116/4/3
f 120/4/3 118/4/3 119/4/3
f 122/4/3 121/4/3 120/4/3
f 123/4/3 121/4/3 122/4/3
f 126/4/3 124/4/3 123/4/3
f 127/4/3 124/4/3 126/4/3
f 128/4/3 119/4/3 116/4/3
f 129/4/3 126/4/3 125/4/3
f 130/4/3 126/4/3 129/4/3
f 132/4/3 128/4/3 116/4/3
f 132/4/3 129/4/3 128/4/3
f 133/4/3 129/4/3 132/4/3
f 134/4/3 129/4/3 133/4/3
f 135/4/3 132/4/3 131/4/3
f 135/4/3 133/4/3 132/4/3
f 136/4/3 133/4/3 135/4/3
f 139/3/3 138/3/3 137/3/3
f 140/3/3 138/3/3 139/3/3
f 143/2/3 140/2/3 139/2/3
f 144/3/3 138/3/3 140/3/3
f 144/2/3 140/2/3 143/2/3
f 145/3/3 142/3/3 141/3/3
f 146/3/3 142/3/3 145/3/3
f 148/3/3 144/3/3 143/3/3
f 149/3/3 138/3/3 144/3/3
f 149/3/3 144/3/3 148/3/3
f 150/1/3 146/1/3 145/1/3
f 151/3/3 147/3/3 146/3/3
f 151/1/3 146/1/3 150/1/3
f 152/3/3 147/3/3 151/3/3
f 153/3/3 148/3/3 143/3/3
f 153/1/3 149/1/3 148/1/3
f 154/3/3 138/3/3 149/3/3
f 154/1/3 149/1/3 153/1/3
f 155/3/3 151/3/3 150/3/3
f 156/3/3 151/3/3 155/3/3
f 157/3/3 153/3/3 143/3/3
f 157/3/3 154/3/3 153/3/3
f 158/3/3 138/3/3 154/3/3
f 158/3/3 154/3/3 157/3/3
f 161/4/3 160/4/3 159/4/3
f 162/4/3 160/4/3 161/4/3
f 165/4/3 164/4/3 163/4/3
f 166/4/3 164/4/3 165/4/3
f 167/4/4 168/4/4 169/4/4
f 169/4/4 168/4/4 170/4/4
f 171/4/4 172/4/4 173/4/4
f 173/4/4 172/4/4 174/4/4
f 175/3/4 176/3/4 177/3/4
f 177/3/4 176/3/4 178/3/4
f 177/1/4 178/1/4 181/1/4
f 178/3/4 176/3/4 182/3/4
f 181/1/4 178/1/4 182/1/4
f 179/3/4 180/3/4 183/3/4
f 183/3/4 180/3/4 184/3/4
f 181/3/4 182/3/4 186/3/4
f 182/3/4 176/3/4 187/3/4
f 186/3/4 182/3/4 187/3/4
f 183/1/4 184/1/4 188/1/4
f 184/3/4 185/3/4 189/3/4
f 188/1/4 184/1/4 189/1/4
f 189/3/4 185/3/4 190/3/4
f 186/1/4 187/1/4 191/1/4
f 187/3/4 176/3/4 192/3/4
f 191/1/4 187/1/4 192/1/4
f 188/3/4 189/3/4 193/3/4
f 193/3/4 189/3/4 194/3/4
f 191/3/4 192/3/4 195/3/4
f 192/3/4 176/3/4 196/3/4
f 195/3/4 192/3/4 196/3/4
f 197/4/4 198/4/4 199/4/4
f 199/4/4 198/4/4 200/4/4
f 200/4/4 198/4/4 201/4/4
f 201/4/4 202/4/4 203/4/4
f 200/4/4 201/4/4 203/4/4
f 203/4/4 202/4/4 204/4/4
f 204/4/4 205/4/4 206/4/4
f 206/4/4 205/4/4 207/4/4
f 207/4/4 208/4/4 210/4/4
f 210/4/4 208/4/4 211/4/4
f 200/4/4 203/4/4 212/4/4
f 209/4/4 210/4/4 213/4/4
f 213/4/4 210/4/4 214/4/4
f 197/4/4 199/4/4 215/4/4
f 200/4/4 212/4/4 216/4/4
f 212/4/4 213/4/4 216/4/4
f 216/4/4 213/4/4 217/4/4
f 217/4/4 213/4/4 218/4/4
f 197/4/4 215/4/4 219/4/4
f 215/4/4 216/4/4 219/4/4
f 216/4/4 217/4/4 219/4/4
f 219/4/4 217/4/4 220/4/4
f 225/4/5 222/4/5 221/4/5
f 228/4/5 224/4/5 223/4/5
f 229/2/5 227/2/5 226/2/5
f 229/3/5 226/3/5 225/3/5
f 230/3/5 228/3/5 227/3/5
f 230/2/5 227/2/5 229/2/5
f 231/3/5 229/3/5 225/3/5
f 231/4/5 225/4/5 221/4/5
f 231/3/5 230/3/5 229/3/5
f 232/3/5 228/3/5 230/3/5
f 232/3/5 230/3/5 231/3/5
f 232/4/5 224/4/5 228/4/5
f 233/4/5 231/4/5 221/4/5
f 233/4/5 232/4/5 231/4/5
f 234/4/5 224/4/5 232/4/5
f 234/4/5 232/4/5 233/4/5
f 238/4/5 236/4/5 235/4/5
f 239/4/5 236/4/5 238/4/5
f 241/4/5 238/4/5 237/4/5
f 242/4/5 238/4/5 241/4/5
f 243/4/5 240/4/5 239/4/5
f 244/4/5 240/4/5 243/4/5
f 245/4/5 243/4/5 242/4/5
f 246/4/5 243/4/5 245/4/5
f 251/4/5 248/4/5 247/4/5
f 252/4/5 248/4/5 251/4/5
f 253/4/5 250/4/5 249/4/5
f 254/4/5 250/4/5 253/4/5
f 259/4/5 256/4/5 255/4/5
f 260/4/5 256/4/5 259/4/5
f 261/4/5 258/4/5 257/4/5
f 262/4/5 258/4/5 261/4/5
f 265/4/5 264/4/5 263/4/5
f 266/4/5 264/4/5 265/4/5
f 269/4/5 268/4/5 267/4/5
f 270/4/5 268/4/5 269/4/5
f 271/4/6 272/4/6 275/4/6
f 273/4/6 274/4/6 276/4/6
f 271/4/6 275/4/6 277/4/6
f 276/4/6 274/4/6 278/4/6
f 271/4/6 277/4/6 279/4/6
f 278/4/6 274/4/6 280/4/6
f 271/4/6 279/4/6 281/4/6
f 280/4/6 274/4/6 282/4/6
f 271/4/6 281/4/6 283/4/6
f 283/4/6 281/4/6 284/4/6
f 282/4/6 274/4/6 289/4/6
f 289/4/6 274/4/6 290/4/6
f 287/4/6 288/4/6 291/4/6
f 288/4/6 289/4/6 291/4/6
f 284/4/6 285/4/6 291/4/6
f 286/4/6 287/4/6 291/4/6
f 285/4/6 286/4/6 291/4/6
f 291/4/6 289/4/6 292/4/6
f 295/4/6 296/4/6 299/4/6
f 299/4/6 296/4/6 300/4/6
f 300/4/6 296/4/6 301/4/6
f 301/4/6 296/4/6 302/4/6
f 293/4/6 294/4/6 307/4/6
f 307/4/6 294/4/6 308/4/6
f 305/4/6 306/4/6 309/4/6
f 303/4/6 304/4/6 309/4/6
f 304/4/6 305/4/6 309/4/6
f 309/4/6 306/4/6 310/4/6
f 297/4/6 298/4/6 311/4/6
f 311/4/6 298/4/6 312/4/6
f 313/4/6 314/4/6 317/4/6
f 317/4/6 314/4/6 318/4/6
f 315/4/6 316/4/6 319/4/6
f 319/4/6 316/4/6 320/4/6
f 321/4/6 322/4/6 325/4/6
f 325/4/6 322/4/6 326/4/6
f 323/4/6 324/4/6 327/4/6
f 327/4/6 324/4/6 328/4/6
f 329/4/6 330/4/6 331/4/6
f 331/4/6 330/4/6 332/4/6
