# MagicaVoxel @ Ephtracy

# group
o 

# material
mtllib Large Stone Hut.mtl
usemtl palette

# normals
vn -1 0 0
vn 1 0 0
vn 0 0 1
vn 0 0 -1
vn 0 -1 0
vn 0 1 0

# texcoords
vt 0.630859 0.5
vt 0.880859 0.5
vt 0.916016 0.5
vt 0.974609 0.5
vt 0.978516 0.5

# verts
v -0.4 0 0.4
v -0.4 0 -0.4
v -0.4 0.1 0.3
v -0.4 0.1 -0.3
v -0.4 0.3 0.3
v -0.4 0.3 -0.3
v -0.4 0.4 0.4
v -0.4 0.4 -0.4
v -0.3 0.1 0.3
v -0.3 0.1 0.2
v -0.3 0.1 0.1
v -0.3 0.1 -0.1
v -0.3 0.1 -0.2
v -0.3 0.1 -0.3
v -0.3 0.2 0.2
v -0.3 0.2 0.1
v -0.3 0.2 -0.1
v -0.3 0.2 -0.2
v -0.3 0.3 0.3
v -0.3 0.3 -0.3
v -0.3 0.4 0.4
v -0.3 0.4 -0.4
v -0.3 0.5 0.4
v -0.3 0.5 -0.4
v -0.2 0.5 0.4
v -0.2 0.5 -0.4
v -0.2 0.6 0.4
v -0.2 0.6 -0.4
v -0.1 0.6 0.4
v -0.1 0.6 -0.4
v -0.1 0.7 0.4
v -0.1 0.7 -0.4
v 0.1 0.5 0.4
v 0.1 0.5 0.3
v 0.1 0.5 -0.3
v 0.1 0.5 -0.4
v 0.1 0.6 0.4
v 0.1 0.6 0.3
v 0.1 0.6 -0.3
v 0.1 0.6 -0.4
v 0.2 0.4 0.4
v 0.2 0.4 0.3
v 0.2 0.4 -0.3
v 0.2 0.4 -0.4
v 0.2 0.5 0.4
v 0.2 0.5 0.3
v 0.2 0.5 -0.3
v 0.2 0.5 -0.4
v 0.3 0 0.4
v 0.3 0 0.3
v 0.3 0.1 -0.3
v 0.3 0.1 -0.4
v 0.3 0.3 0.4
v 0.3 0.3 0.3
v 0.3 0.3 -0.3
v 0.3 0.3 -0.4
v -0.3 0 0.4
v -0.3 0 0.3
v -0.3 0.1 -0.3
v -0.3 0.1 -0.4
v -0.3 0.3 0.4
v -0.3 0.3 0.3
v -0.3 0.3 -0.3
v -0.3 0.3 -0.4
v -0.2 0.4 0.4
v -0.2 0.4 0.3
v -0.2 0.4 -0.3
v -0.2 0.4 -0.4
v -0.2 0.5 0.4
v -0.2 0.5 0.3
v -0.2 0.5 -0.3
v -0.2 0.5 -0.4
v -0.1 0.5 0.4
v -0.1 0.5 0.3
v -0.1 0.5 -0.3
v -0.1 0.5 -0.4
v -0.1 0.6 0.4
v -0.1 0.6 0.3
v -0.1 0.6 -0.3
v -0.1 0.6 -0.4
v 0.1 0.6 0.4
v 0.1 0.6 -0.4
v 0.1 0.7 0.4
v 0.1 0.7 -0.4
v 0.2 0.5 0.4
v 0.2 0.5 -0.4
v 0.2 0.6 0.4
v 0.2 0.6 -0.4
v 0.3 0.1 0.3
v 0.3 0.1 0.2
v 0.3 0.1 0.1
v 0.3 0.1 -0.1
v 0.3 0.1 -0.2
v 0.3 0.1 -0.3
v 0.3 0.2 0.2
v 0.3 0.2 0.1
v 0.3 0.2 -0.1
v 0.3 0.2 -0.2
v 0.3 0.3 0.3
v 0.3 0.3 -0.3
v 0.3 0.4 0.4
v 0.3 0.4 -0.4
v 0.3 0.5 0.4
v 0.3 0.5 -0.4
v 0.4 0 0.4
v 0.4 0 -0.4
v 0.4 0.1 0.3
v 0.4 0.1 -0.3
v 0.4 0.3 0.3
v 0.4 0.3 -0.3
v 0.4 0.4 0.4
v 0.4 0.4 -0.4
v -0.4 0 0.4
v -0.4 0.4 0.4
v -0.3 0 0.4
v -0.3 0.3 0.4
v -0.3 0.4 0.4
v -0.3 0.5 0.4
v -0.2 0.4 0.4
v -0.2 0.5 0.4
v -0.2 0.6 0.4
v -0.1 0.5 0.4
v -0.1 0.6 0.4
v -0.1 0.7 0.4
v 0.1 0.5 0.4
v 0.1 0.6 0.4
v 0.1 0.7 0.4
v 0.2 0.4 0.4
v 0.2 0.5 0.4
v 0.2 0.6 0.4
v 0.3 0 0.4
v 0.3 0.3 0.4
v 0.3 0.4 0.4
v 0.3 0.5 0.4
v 0.4 0 0.4
v 0.4 0.4 0.4
v -0.3 0 0.3
v -0.3 0.3 0.3
v -0.2 0 0.3
v -0.2 0.2 0.3
v -0.2 0.4 0.3
v -0.2 0.5 0.3
v -0.1 0 0.3
v -0.1 0.2 0.3
v -0.1 0.5 0.3
v -0.1 0.6 0.3
v 7.45058e-009 0.1 0.3
v 7.45058e-009 0.2 0.3
v 0.1 0.5 0.3
v 0.1 0.6 0.3
v 0.2 0.1 0.3
v 0.2 0.2 0.3
v 0.2 0.4 0.3
v 0.2 0.5 0.3
v 0.3 0 0.3
v 0.3 0.3 0.3
v -0.4 0.1 -0.3
v -0.4 0.3 -0.3
v -0.3 0.1 -0.3
v -0.3 0.3 -0.3
v 0.3 0.1 -0.3
v 0.3 0.3 -0.3
v 0.4 0.1 -0.3
v 0.4 0.3 -0.3
v -0.4 0.1 0.3
v -0.4 0.3 0.3
v -0.3 0.1 0.3
v -0.3 0.3 0.3
v 0.3 0.1 0.3
v 0.3 0.3 0.3
v 0.4 0.1 0.3
v 0.4 0.3 0.3
v -0.3 0.1 -0.3
v -0.3 0.3 -0.3
v -0.2 0.1 -0.3
v -0.2 0.2 -0.3
v -0.2 0.4 -0.3
v -0.2 0.5 -0.3
v -0.1 0.1 -0.3
v -0.1 0.2 -0.3
v -0.1 0.5 -0.3
v -0.1 0.6 -0.3
v 0.1 0.1 -0.3
v 0.1 0.2 -0.3
v 0.1 0.5 -0.3
v 0.1 0.6 -0.3
v 0.2 0.1 -0.3
v 0.2 0.2 -0.3
v 0.2 0.4 -0.3
v 0.2 0.5 -0.3
v 0.3 0.1 -0.3
v 0.3 0.3 -0.3
v -0.4 0 -0.4
v -0.4 0.4 -0.4
v -0.3 0.1 -0.4
v -0.3 0.3 -0.4
v -0.3 0.4 -0.4
v -0.3 0.5 -0.4
v -0.2 0.4 -0.4
v -0.2 0.5 -0.4
v -0.2 0.6 -0.4
v -0.1 0.5 -0.4
v -0.1 0.6 -0.4
v -0.1 0.7 -0.4
v 0.1 0.5 -0.4
v 0.1 0.6 -0.4
v 0.1 0.7 -0.4
v 0.2 0.4 -0.4
v 0.2 0.5 -0.4
v 0.2 0.6 -0.4
v 0.3 0.1 -0.4
v 0.3 0.3 -0.4
v 0.3 0.4 -0.4
v 0.3 0.5 -0.4
v 0.4 0 -0.4
v 0.4 0.4 -0.4
v -0.4 0 0.4
v -0.3 0 0.4
v 0.3 0 0.4
v 0.4 0 0.4
v -0.3 0 0.3
v -0.2 0 0.3
v -0.1 0 0.3
v 0.3 0 0.3
v -0.2 0 0.2
v -0.1 0 0.2
v -0.3 0 -0.3
v 0.3 0 -0.3
v -0.4 0 -0.4
v 0.4 0 -0.4
v -0.3 0.3 0.4
v 0.3 0.3 0.4
v -0.4 0.3 0.3
v -0.3 0.3 0.3
v 0.3 0.3 0.3
v 0.4 0.3 0.3
v -0.4 0.3 -0.3
v -0.3 0.3 -0.3
v 0.3 0.3 -0.3
v 0.4 0.3 -0.3
v -0.3 0.3 -0.4
v 0.3 0.3 -0.4
v -0.2 0.5 0.4
v -0.1 0.5 0.4
v 0.1 0.5 0.4
v 0.2 0.5 0.4
v -0.2 0.5 0.3
v -0.1 0.5 0.3
v 0.1 0.5 0.3
v 0.2 0.5 0.3
v -0.2 0.5 -0.3
v -0.1 0.5 -0.3
v 0.1 0.5 -0.3
v 0.2 0.5 -0.3
v -0.2 0.5 -0.4
v -0.1 0.5 -0.4
v 0.1 0.5 -0.4
v 0.2 0.5 -0.4
v -0.1 0.6 0.4
v 0.1 0.6 0.4
v -0.1 0.6 0.3
v 0.1 0.6 0.3
v -0.1 0.6 -0.3
v 0.1 0.6 -0.3
v -0.1 0.6 -0.4
v 0.1 0.6 -0.4
v -0.4 0.1 0.3
v -0.3 0.1 0.3
v 0.3 0.1 0.3
v 0.4 0.1 0.3
v -0.3 0.1 0.2
v 0.3 0.1 0.2
v -0.3 0.1 0.1
v 0.3 0.1 0.1
v -0.3 0.1 -0.1
v 0.3 0.1 -0.1
v -0.3 0.1 -0.2
v 0.3 0.1 -0.2
v -0.4 0.1 -0.3
v -0.3 0.1 -0.3
v -0.2 0.1 -0.3
v -0.1 0.1 -0.3
v 0.1 0.1 -0.3
v 0.2 0.1 -0.3
v 0.3 0.1 -0.3
v 0.4 0.1 -0.3
v -0.3 0.1 -0.4
v 0.3 0.1 -0.4
v -0.4 0.4 0.4
v -0.3 0.4 0.4
v -0.2 0.4 0.4
v 0.2 0.4 0.4
v 0.3 0.4 0.4
v 0.4 0.4 0.4
v -0.2 0.4 0.3
v 0.2 0.4 0.3
v -0.2 0.4 -0.3
v 0.2 0.4 -0.3
v -0.4 0.4 -0.4
v -0.3 0.4 -0.4
v -0.2 0.4 -0.4
v 0.2 0.4 -0.4
v 0.3 0.4 -0.4
v 0.4 0.4 -0.4
v -0.3 0.5 0.4
v -0.2 0.5 0.4
v 0.2 0.5 0.4
v 0.3 0.5 0.4
v -0.3 0.5 -0.4
v -0.2 0.5 -0.4
v 0.2 0.5 -0.4
v 0.3 0.5 -0.4
v -0.2 0.6 0.4
v -0.1 0.6 0.4
v 0.1 0.6 0.4
v 0.2 0.6 0.4
v -0.2 0.6 -0.4
v -0.1 0.6 -0.4
v 0.1 0.6 -0.4
v 0.2 0.6 -0.4
v -0.1 0.7 0.4
v 0.1 0.7 0.4
v -0.1 0.7 -0.4
v 0.1 0.7 -0.4

# faces
f 3/3/1 2/3/1 1/3/1
f 4/3/1 2/3/1 3/3/1
f 5/3/1 3/3/1 1/3/1
f 6/3/1 2/3/1 4/3/1
f 7/3/1 5/3/1 1/3/1
f 7/3/1 6/3/1 5/3/1
f 8/3/1 2/3/1 6/3/1
f 8/3/1 6/3/1 7/3/1
f 15/4/1 10/4/1 9/4/1
f 15/1/1 11/1/1 10/1/1
f 16/4/1 12/4/1 11/4/1
f 16/1/1 11/1/1 15/1/1
f 17/1/1 13/1/1 12/1/1
f 17/4/1 12/4/1 16/4/1
f 18/4/1 14/4/1 13/4/1
f 18/1/1 13/1/1 17/1/1
f 19/4/1 17/4/1 16/4/1
f 19/4/1 16/4/1 15/4/1
f 19/4/1 18/4/1 17/4/1
f 19/4/1 15/4/1 9/4/1
f 20/4/1 14/4/1 18/4/1
f 20/4/1 18/4/1 19/4/1
f 23/3/1 22/3/1 21/3/1
f 24/3/1 22/3/1 23/3/1
f 27/3/1 26/3/1 25/3/1
f 28/3/1 26/3/1 27/3/1
f 31/3/1 30/3/1 29/3/1
f 32/3/1 30/3/1 31/3/1
f 37/3/1 34/3/1 33/3/1
f 38/3/1 34/3/1 37/3/1
f 39/3/1 36/3/1 35/3/1
f 40/3/1 36/3/1 39/3/1
f 45/3/1 42/3/1 41/3/1
f 46/3/1 42/3/1 45/3/1
f 47/3/1 44/3/1 43/3/1
f 48/3/1 44/3/1 47/3/1
f 53/3/1 50/3/1 49/3/1
f 54/3/1 50/3/1 53/3/1
f 55/3/1 52/3/1 51/3/1
f 56/3/1 52/3/1 55/3/1
f 57/3/2 58/3/2 61/3/2
f 61/3/2 58/3/2 62/3/2
f 59/3/2 60/3/2 63/3/2
f 63/3/2 60/3/2 64/3/2
f 65/3/2 66/3/2 69/3/2
f 69/3/2 66/3/2 70/3/2
f 67/3/2 68/3/2 71/3/2
f 71/3/2 68/3/2 72/3/2
f 73/3/2 74/3/2 77/3/2
f 77/3/2 74/3/2 78/3/2
f 75/3/2 76/3/2 79/3/2
f 79/3/2 76/3/2 80/3/2
f 81/3/2 82/3/2 83/3/2
f 83/3/2 82/3/2 84/3/2
f 85/3/2 86/3/2 87/3/2
f 87/3/2 86/3/2 88/3/2
f 89/4/2 90/4/2 95/4/2
f 90/1/2 91/1/2 95/1/2
f 91/4/2 92/4/2 96/4/2
f 95/1/2 91/1/2 96/1/2
f 92/1/2 93/1/2 97/1/2
f 96/4/2 92/4/2 97/4/2
f 93/4/2 94/4/2 98/4/2
f 97/1/2 93/1/2 98/1/2
f 96/4/2 97/4/2 99/4/2
f 95/4/2 96/4/2 99/4/2
f 97/4/2 98/4/2 99/4/2
f 89/4/2 95/4/2 99/4/2
f 98/4/2 94/4/2 100/4/2
f 99/4/2 98/4/2 100/4/2
f 101/3/2 102/3/2 103/3/2
f 103/3/2 102/3/2 104/3/2
f 105/3/2 106/3/2 107/3/2
f 107/3/2 106/3/2 108/3/2
f 105/3/2 107/3/2 109/3/2
f 108/3/2 106/3/2 110/3/2
f 105/3/2 109/3/2 111/3/2
f 109/3/2 110/3/2 111/3/2
f 110/3/2 106/3/2 112/3/2
f 111/3/2 110/3/2 112/3/2
f 115/3/3 114/3/3 113/3/3
f 116/3/3 114/3/3 115/3/3
f 117/3/3 114/3/3 116/3/3
f 119/3/3 118/3/3 117/3/3
f 119/3/3 117/3/3 116/3/3
f 120/3/3 118/3/3 119/3/3
f 122/3/3 121/3/3 120/3/3
f 123/3/3 121/3/3 122/3/3
f 126/3/3 124/3/3 123/3/3
f 127/3/3 124/3/3 126/3/3
f 128/3/3 119/3/3 116/3/3
f 129/3/3 126/3/3 125/3/3
f 130/3/3 126/3/3 129/3/3
f 132/3/3 128/3/3 116/3/3
f 132/3/3 129/3/3 128/3/3
f 133/3/3 129/3/3 132/3/3
f 134/3/3 129/3/3 133/3/3
f 135/3/3 132/3/3 131/3/3
f 135/3/3 133/3/3 132/3/3
f 136/3/3 133/3/3 135/3/3
f 139/4/3 138/4/3 137/4/3
f 140/4/3 138/4/3 139/4/3
f 143/2/3 140/2/3 139/2/3
f 144/4/3 138/4/3 140/4/3
f 144/2/3 140/2/3 143/2/3
f 145/4/3 142/4/3 141/4/3
f 147/4/3 144/4/3 143/4/3
f 148/4/3 138/4/3 144/4/3
f 148/4/3 144/4/3 147/4/3
f 149/4/3 146/4/3 145/4/3
f 149/4/3 145/4/3 141/4/3
f 150/4/3 146/4/3 149/4/3
f 151/4/3 147/4/3 143/4/3
f 151/1/3 148/1/3 147/1/3
f 152/4/3 138/4/3 148/4/3
f 152/1/3 148/1/3 151/1/3
f 153/4/3 149/4/3 141/4/3
f 154/4/3 149/4/3 153/4/3
f 155/4/3 151/4/3 143/4/3
f 155/4/3 152/4/3 151/4/3
f 156/4/3 138/4/3 152/4/3
f 156/4/3 152/4/3 155/4/3
f 159/3/3 158/3/3 157/3/3
f 160/3/3 158/3/3 159/3/3
f 163/3/3 162/3/3 161/3/3
f 164/3/3 162/3/3 163/3/3
f 165/3/4 166/3/4 167/3/4
f 167/3/4 166/3/4 168/3/4
f 169/3/4 170/3/4 171/3/4
f 171/3/4 170/3/4 172/3/4
f 173/4/4 174/4/4 175/4/4
f 175/4/4 174/4/4 176/4/4
f 175/1/4 176/1/4 179/1/4
f 176/4/4 174/4/4 180/4/4
f 179/1/4 176/1/4 180/1/4
f 177/4/4 178/4/4 181/4/4
f 179/4/4 180/4/4 183/4/4
f 180/4/4 174/4/4 184/4/4
f 183/4/4 180/4/4 184/4/4
f 181/4/4 182/4/4 185/4/4
f 177/4/4 181/4/4 185/4/4
f 185/4/4 182/4/4 186/4/4
f 183/1/4 184/1/4 187/1/4
f 184/4/4 174/4/4 188/4/4
f 187/1/4 184/1/4 188/1/4
f 177/4/4 185/4/4 189/4/4
f 189/4/4 185/4/4 190/4/4
f 187/4/4 188/4/4 191/4/4
f 188/4/4 174/4/4 192/4/4
f 191/4/4 188/4/4 192/4/4
f 193/3/4 194/3/4 195/3/4
f 195/3/4 194/3/4 196/3/4
f 196/3/4 194/3/4 197/3/4
f 197/3/4 198/3/4 199/3/4
f 196/3/4 197/3/4 199/3/4
f 199/3/4 198/3/4 200/3/4
f 200/3/4 201/3/4 202/3/4
f 202/3/4 201/3/4 203/3/4
f 203/3/4 204/3/4 206/3/4
f 206/3/4 204/3/4 207/3/4
f 196/3/4 199/3/4 208/3/4
f 205/3/4 206/3/4 209/3/4
f 209/3/4 206/3/4 210/3/4
f 193/3/4 195/3/4 211/3/4
f 196/3/4 208/3/4 212/3/4
f 208/3/4 209/3/4 212/3/4
f 212/3/4 209/3/4 213/3/4
f 213/3/4 209/3/4 214/3/4
f 193/3/4 211/3/4 215/3/4
f 211/3/4 212/3/4 215/3/4
f 212/3/4 213/3/4 215/3/4
f 215/3/4 213/3/4 216/3/4
f 221/3/5 218/3/5 217/3/5
f 224/3/5 220/3/5 219/3/5
f 225/2/5 223/2/5 222/2/5
f 225/4/5 222/4/5 221/4/5
f 226/4/5 224/4/5 223/4/5
f 226/2/5 223/2/5 225/2/5
f 227/4/5 225/4/5 221/4/5
f 227/3/5 221/3/5 217/3/5
f 227/4/5 226/4/5 225/4/5
f 228/4/5 224/4/5 226/4/5
f 228/4/5 226/4/5 227/4/5
f 228/3/5 220/3/5 224/3/5
f 229/3/5 227/3/5 217/3/5
f 229/3/5 228/3/5 227/3/5
f 230/3/5 220/3/5 228/3/5
f 230/3/5 228/3/5 229/3/5
f 234/3/5 232/3/5 231/3/5
f 235/3/5 232/3/5 234/3/5
f 237/3/5 234/3/5 233/3/5
f 238/3/5 234/3/5 237/3/5
f 239/3/5 236/3/5 235/3/5
f 240/3/5 236/3/5 239/3/5
f 241/3/5 239/3/5 238/3/5
f 242/3/5 239/3/5 241/3/5
f 247/3/5 244/3/5 243/3/5
f 248/3/5 244/3/5 247/3/5
f 249/3/5 246/3/5 245/3/5
f 250/3/5 246/3/5 249/3/5
f 255/3/5 252/3/5 251/3/5
f 256/3/5 252/3/5 255/3/5
f 257/3/5 254/3/5 253/3/5
f 258/3/5 254/3/5 257/3/5
f 261/3/5 260/3/5 259/3/5
f 262/3/5 260/3/5 261/3/5
f 265/3/5 264/3/5 263/3/5
f 266/3/5 264/3/5 265/3/5
f 267/3/6 268/3/6 271/3/6
f 269/3/6 270/3/6 272/3/6
f 267/3/6 271/3/6 273/3/6
f 272/3/6 270/3/6 274/3/6
f 267/3/6 273/3/6 275/3/6
f 274/3/6 270/3/6 276/3/6
f 267/3/6 275/3/6 277/3/6
f 276/3/6 270/3/6 278/3/6
f 267/3/6 277/3/6 279/3/6
f 279/3/6 277/3/6 280/3/6
f 278/3/6 270/3/6 285/3/6
f 285/3/6 270/3/6 286/3/6
f 283/3/6 284/3/6 287/3/6
f 284/3/6 285/3/6 287/3/6
f 280/3/6 281/3/6 287/3/6
f 282/3/6 283/3/6 287/3/6
f 281/3/6 282/3/6 287/3/6
f 287/3/6 285/3/6 288/3/6
f 291/3/6 292/3/6 295/3/6
f 295/3/6 292/3/6 296/3/6
f 289/3/6 290/3/6 299/3/6
f 299/3/6 290/3/6 300/3/6
f 297/3/6 298/3/6 301/3/6
f 301/3/6 298/3/6 302/3/6
f 293/3/6 294/3/6 303/3/6
f 303/3/6 294/3/6 304/3/6
f 305/3/6 306/3/6 309/3/6
f 309/3/6 306/3/6 310/3/6
f 307/3/6 308/3/6 311/3/6
f 311/3/6 308/3/6 312/3/6
f 313/3/6 314/3/6 317/3/6
f 317/3/6 314/3/6 318/3/6
f 315/3/6 316/3/6 319/3/6
f 319/3/6 316/3/6 320/3/6
f 321/3/6 322/3/6 323/3/6
f 323/3/6 322/3/6 324/3/6
