# MagicaVoxel @ Ephtracy

# group
o 

# material
mtllib Mine.mtl
usemtl palette

# normals
vn -1 0 0
vn 1 0 0
vn 0 0 1
vn 0 0 -1
vn 0 -1 0
vn 0 1 0

# texcoords
vt 0.564453 0.5
vt 0.568359 0.5
vt 0.572266 0.5
vt 0.970703 0.5
vt 0.978516 0.5

# verts
v -0.4 0 0.4
v -0.4 0 0.3
v -0.4 0 0.2
v -0.4 0 -0.4
v -0.4 0.3 -0.3
v -0.4 0.3 -0.4
v -0.4 0.4 0.5
v -0.4 0.4 0.4
v -0.4 0.4 0.3
v -0.4 0.4 0.2
v -0.4 0.4 1.49012e-008
v -0.4 0.4 -0.3
v -0.4 0.5 0.5
v -0.4 0.5 1.49012e-008
v -0.3 0 0.3
v -0.3 0 0.2
v -0.3 0 -0.4
v -0.3 0 -0.5
v -0.3 0.1 0.3
v -0.3 0.1 0.2
v -0.3 0.2 0.3
v -0.3 0.2 0.2
v -0.3 0.3 -0.3
v -0.3 0.3 -0.4
v -0.3 0.3 -0.5
v -0.3 0.4 1.49012e-008
v -0.3 0.4 -0.2
v -0.3 0.4 -0.3
v -0.3 0.4 -0.4
v -0.3 0.5 1.49012e-008
v -0.3 0.5 -0.2
v -0.2 0.3 -0.4
v -0.2 0.3 -0.5
v -0.2 0.4 -0.2
v -0.2 0.4 -0.3
v -0.2 0.4 -0.4
v -0.2 0.4 -0.5
v -0.2 0.5 0.2
v -0.2 0.5 1.49012e-008
v -0.2 0.5 -0.1
v -0.2 0.5 -0.2
v -0.2 0.5 -0.3
v -0.2 0.6 0.2
v -0.2 0.6 -0.1
v -0.1 0.4 -0.3
v -0.1 0.4 -0.4
v -0.1 0.5 -0.1
v -0.1 0.5 -0.2
v -0.1 0.5 -0.3
v -0.1 0.5 -0.4
v -0.1 0.6 -0.1
v -0.1 0.6 -0.2
v 7.45058e-009 0 0.4
v 7.45058e-009 0 0.3
v 7.45058e-009 0.4 0.4
v 7.45058e-009 0.4 0.3
v 0.1 0 -0.1
v 0.1 0 -0.2
v 0.1 0 -0.4
v 0.1 0.2 -0.1
v 0.1 0.2 -0.2
v 0.1 0.3 -0.2
v 0.1 0.3 -0.4
v 0.2 0 0.2
v 0.2 0 0.1
v 0.2 0 -0.1
v 0.2 0.1 0.2
v 0.2 0.1 0.1
v 0.2 0.2 -0.1
v 0.2 0.2 -0.2
v 0.2 0.4 0.2
v 0.2 0.4 0.1
v 0.2 0.4 1.49012e-008
v 0.2 0.4 -0.1
v 0.2 0.4 -0.2
v 0.2 0.5 0.2
v 0.2 0.5 1.49012e-008
v 0.3 0.1 0.2
v 0.3 0.1 0.1
v 0.3 0.4 0.2
v 0.3 0.4 0.1
v -0.3 0.1 0.4
v -0.3 0.1 0.3
v -0.3 0.1 0.2
v -0.3 0.1 0.1
v -0.3 0.2 0.3
v -0.3 0.2 0.2
v -0.3 0.4 0.4
v -0.3 0.4 0.3
v -0.3 0.4 0.2
v -0.3 0.4 0.1
v -0.2 0 0.4
v -0.2 0 0.3
v -0.2 0 0.2
v -0.2 0 0.1
v -0.2 0 -0.1
v -0.2 0.1 0.4
v -0.2 0.1 0.3
v -0.2 0.1 0.2
v -0.2 0.1 0.1
v -0.2 0.1 -0.1
v -0.2 0.1 -0.2
v -0.2 0.2 0.3
v -0.2 0.2 0.2
v -0.2 0.4 0.2
v -0.2 0.4 0.1
v -0.2 0.4 1.49012e-008
v -0.2 0.4 -0.2
v -0.2 0.5 0.2
v -0.2 0.5 1.49012e-008
v -0.1 0 0.3
v -0.1 0 0.2
v -0.1 0 -0.1
v -0.1 0 -0.2
v -0.1 0 -0.4
v -0.1 0.1 0.3
v -0.1 0.1 0.2
v -0.1 0.1 -0.1
v -0.1 0.1 -0.2
v -0.1 0.3 -0.2
v -0.1 0.3 -0.4
v 0.1 0 0.4
v 0.1 0 0.3
v 0.1 0.4 0.5
v 0.1 0.4 0.4
v 0.1 0.4 0.3
v 0.1 0.4 0.2
v 0.1 0.4 -0.3
v 0.1 0.4 -0.4
v 0.1 0.5 0.5
v 0.1 0.5 0.2
v 0.1 0.5 -0.1
v 0.1 0.5 -0.2
v 0.1 0.5 -0.3
v 0.1 0.5 -0.4
v 0.1 0.6 -0.1
v 0.1 0.6 -0.2
v 0.2 0.3 -0.4
v 0.2 0.3 -0.5
v 0.2 0.4 -0.2
v 0.2 0.4 -0.3
v 0.2 0.4 -0.4
v 0.2 0.4 -0.5
v 0.2 0.5 0.2
v 0.2 0.5 -0.1
v 0.2 0.5 -0.2
v 0.2 0.5 -0.3
v 0.2 0.6 0.2
v 0.2 0.6 -0.1
v 0.3 0 -0.4
v 0.3 0 -0.5
v 0.3 0.3 -0.3
v 0.3 0.3 -0.4
v 0.3 0.3 -0.5
v 0.3 0.4 0.2
v 0.3 0.4 -0.2
v 0.3 0.4 -0.3
v 0.3 0.4 -0.4
v 0.3 0.5 0.2
v 0.3 0.5 -0.2
v 0.4 0 0.2
v 0.4 0 -0.4
v 0.4 0.3 -0.3
v 0.4 0.3 -0.4
v 0.4 0.4 0.2
v 0.4 0.4 -0.3
v -0.4 0.4 0.5
v -0.4 0.5 0.5
v 0.1 0.4 0.5
v 0.1 0.5 0.5
v -0.4 0 0.4
v -0.4 0.4 0.4
v -0.3 0 0.4
v -0.3 0.1 0.4
v -0.3 0.4 0.4
v -0.2 0 0.4
v -0.2 0.1 0.4
v 7.45058e-009 0 0.4
v 7.45058e-009 0.4 0.4
v 0.1 0 0.4
v 0.1 0.4 0.4
v -0.3 0.1 0.3
v -0.3 0.2 0.3
v -0.2 0 0.3
v -0.2 0.1 0.3
v -0.2 0.2 0.3
v -0.1 0 0.3
v -0.1 0.1 0.3
v -0.4 0 0.2
v -0.4 0.4 0.2
v -0.3 0 0.2
v -0.3 0.1 0.2
v -0.3 0.2 0.2
v -0.3 0.4 0.2
v -0.2 0.5 0.2
v -0.2 0.6 0.2
v 0.1 0.5 0.2
v 0.2 0 0.2
v 0.2 0.1 0.2
v 0.2 0.4 0.2
v 0.2 0.5 0.2
v 0.2 0.6 0.2
v 0.3 0 0.2
v 0.3 0.1 0.2
v 0.3 0.4 0.2
v 0.3 0.5 0.2
v 0.4 0 0.2
v 0.4 0.4 0.2
v -0.3 0.1 0.1
v -0.3 0.4 0.1
v -0.2 0.1 0.1
v -0.2 0.4 0.1
v 0.2 0.1 0.1
v 0.2 0.4 0.1
v 0.3 0.1 0.1
v 0.3 0.4 0.1
v -0.2 0.4 1.49012e-008
v -0.2 0.5 1.49012e-008
v 0.2 0.4 1.49012e-008
v 0.2 0.5 1.49012e-008
v -0.2 0 -0.1
v -0.2 0.1 -0.1
v -0.1 0 -0.1
v -0.1 0.1 -0.1
v 0.1 0 -0.1
v 0.1 0.2 -0.1
v 0.2 0 -0.1
v 0.2 0.2 -0.1
v -0.2 0.1 -0.2
v -0.2 0.4 -0.2
v -0.1 0.1 -0.2
v -0.1 0.3 -0.2
v 0.1 0.2 -0.2
v 0.1 0.3 -0.2
v 0.2 0.2 -0.2
v 0.2 0.4 -0.2
v -0.1 0 -0.4
v -0.1 0.3 -0.4
v 0.1 0 -0.4
v 0.1 0.3 -0.4
v -0.4 0 0.3
v -0.4 0.4 0.3
v -0.3 0 0.3
v -0.3 0.1 0.3
v -0.3 0.2 0.3
v -0.3 0.4 0.3
v 7.45058e-009 0 0.3
v 7.45058e-009 0.4 0.3
v 0.1 0 0.3
v 0.1 0.4 0.3
v -0.3 0.1 0.2
v -0.3 0.2 0.2
v -0.2 0 0.2
v -0.2 0.1 0.2
v -0.2 0.2 0.2
v -0.2 0.4 0.2
v -0.2 0.5 0.2
v -0.1 0 0.2
v -0.1 0.1 0.2
v 0.1 0.4 0.2
v 0.1 0.5 0.2
v -0.4 0.4 1.49012e-008
v -0.4 0.5 1.49012e-008
v -0.3 0.4 1.49012e-008
v -0.3 0.5 1.49012e-008
v -0.2 0.5 -0.1
v -0.2 0.6 -0.1
v -0.1 0.5 -0.1
v -0.1 0.6 -0.1
v 0.1 0.5 -0.1
v 0.1 0.6 -0.1
v 0.2 0.5 -0.1
v 0.2 0.6 -0.1
v -0.3 0.4 -0.2
v -0.3 0.5 -0.2
v -0.2 0.4 -0.2
v -0.2 0.5 -0.2
v -0.1 0.5 -0.2
v -0.1 0.6 -0.2
v 0.1 0.5 -0.2
v 0.1 0.6 -0.2
v 0.2 0.4 -0.2
v 0.2 0.5 -0.2
v 0.3 0.4 -0.2
v 0.3 0.5 -0.2
v -0.4 0.3 -0.3
v -0.4 0.4 -0.3
v -0.3 0.3 -0.3
v -0.3 0.4 -0.3
v -0.2 0.4 -0.3
v -0.2 0.5 -0.3
v -0.1 0.4 -0.3
v -0.1 0.5 -0.3
v 0.1 0.4 -0.3
v 0.1 0.5 -0.3
v 0.2 0.4 -0.3
v 0.2 0.5 -0.3
v 0.3 0.3 -0.3
v 0.3 0.4 -0.3
v 0.4 0.3 -0.3
v 0.4 0.4 -0.3
v -0.4 0 -0.4
v -0.4 0.3 -0.4
v -0.3 0 -0.4
v -0.3 0.3 -0.4
v -0.3 0.4 -0.4
v -0.2 0.3 -0.4
v -0.2 0.4 -0.4
v -0.1 0.4 -0.4
v -0.1 0.5 -0.4
v 0.1 0.4 -0.4
v 0.1 0.5 -0.4
v 0.2 0.3 -0.4
v 0.2 0.4 -0.4
v 0.3 0 -0.4
v 0.3 0.3 -0.4
v 0.3 0.4 -0.4
v 0.4 0 -0.4
v 0.4 0.3 -0.4
v -0.3 0 -0.5
v -0.3 0.3 -0.5
v -0.2 0.3 -0.5
v -0.2 0.4 -0.5
v 0.2 0.3 -0.5
v 0.2 0.4 -0.5
v 0.3 0 -0.5
v 0.3 0.3 -0.5
v -0.4 0 0.4
v -0.3 0 0.4
v -0.2 0 0.4
v 7.45058e-009 0 0.4
v 0.1 0 0.4
v -0.4 0 0.3
v -0.3 0 0.3
v -0.2 0 0.3
v -0.1 0 0.3
v 7.45058e-009 0 0.3
v 0.1 0 0.3
v -0.4 0 0.2
v -0.3 0 0.2
v -0.2 0 0.2
v -0.1 0 0.2
v 0.2 0 0.2
v 0.3 0 0.2
v 0.4 0 0.2
v -0.3 0 0.1
v -0.2 0 0.1
v 0.2 0 0.1
v 0.3 0 0.1
v -0.2 0 -0.1
v -0.1 0 -0.1
v 0.1 0 -0.1
v 0.2 0 -0.1
v -0.2 0 -0.2
v -0.1 0 -0.2
v 0.1 0 -0.2
v 0.2 0 -0.2
v -0.4 0 -0.4
v -0.3 0 -0.4
v -0.1 0 -0.4
v 0.1 0 -0.4
v 0.3 0 -0.4
v 0.4 0 -0.4
v -0.3 0 -0.5
v 0.3 0 -0.5
v -0.1 0.3 -0.2
v 0.1 0.3 -0.2
v -0.1 0.3 -0.4
v 0.1 0.3 -0.4
v -0.4 0.4 0.5
v 0.1 0.4 0.5
v -0.4 0.4 0.4
v -0.3 0.4 0.4
v 7.45058e-009 0.4 0.4
v 0.1 0.4 0.4
v -0.4 0.4 0.3
v -0.3 0.4 0.3
v 7.45058e-009 0.4 0.3
v 0.1 0.4 0.3
v -0.4 0.4 0.2
v -0.3 0.4 0.2
v -0.2 0.4 0.2
v 0.1 0.4 0.2
v 0.2 0.4 0.2
v 0.3 0.4 0.2
v -0.3 0.4 0.1
v -0.2 0.4 0.1
v 0.2 0.4 0.1
v 0.3 0.4 0.1
v -0.2 0.4 1.49012e-008
v 0.2 0.4 1.49012e-008
v 0.2 0.4 -0.1
v -0.2 0.4 -0.2
v 0.2 0.4 -0.2
v -0.2 0.5 0.2
v 0.1 0.5 0.2
v 0.2 0.5 0.2
v -0.2 0.5 1.49012e-008
v 0.2 0.5 1.49012e-008
v -0.3 0.1 0.4
v -0.2 0.1 0.4
v -0.3 0.1 0.3
v -0.2 0.1 0.3
v -0.1 0.1 0.3
v -0.3 0.1 0.2
v -0.2 0.1 0.2
v -0.1 0.1 0.2
v 0.2 0.1 0.2
v 0.3 0.1 0.2
v -0.3 0.1 0.1
v -0.2 0.1 0.1
v 0.2 0.1 0.1
v 0.3 0.1 0.1
v -0.2 0.1 -0.1
v -0.1 0.1 -0.1
v -0.2 0.1 -0.2
v -0.1 0.1 -0.2
v -0.3 0.2 0.3
v -0.2 0.2 0.3
v -0.3 0.2 0.2
v -0.2 0.2 0.2
v 0.1 0.2 -0.1
v 0.2 0.2 -0.1
v 0.1 0.2 -0.2
v 0.2 0.2 -0.2
v -0.4 0.3 -0.3
v -0.3 0.3 -0.3
v 0.3 0.3 -0.3
v 0.4 0.3 -0.3
v -0.4 0.3 -0.4
v -0.3 0.3 -0.4
v -0.2 0.3 -0.4
v 0.2 0.3 -0.4
v 0.3 0.3 -0.4
v 0.4 0.3 -0.4
v -0.3 0.3 -0.5
v -0.2 0.3 -0.5
v 0.2 0.3 -0.5
v 0.3 0.3 -0.5
v 0.3 0.4 0.2
v 0.4 0.4 0.2
v -0.4 0.4 1.49012e-008
v -0.3 0.4 1.49012e-008
v -0.3 0.4 -0.2
v -0.2 0.4 -0.2
v 0.2 0.4 -0.2
v 0.3 0.4 -0.2
v -0.4 0.4 -0.3
v -0.3 0.4 -0.3
v -0.2 0.4 -0.3
v -0.1 0.4 -0.3
v 0.1 0.4 -0.3
v 0.2 0.4 -0.3
v 0.3 0.4 -0.3
v 0.4 0.4 -0.3
v -0.3 0.4 -0.4
v -0.2 0.4 -0.4
v -0.1 0.4 -0.4
v 0.1 0.4 -0.4
v 0.2 0.4 -0.4
v 0.3 0.4 -0.4
v -0.2 0.4 -0.5
v 0.2 0.4 -0.5
v -0.4 0.5 0.5
v 0.1 0.5 0.5
v -0.2 0.5 0.2
v 0.1 0.5 0.2
v 0.2 0.5 0.2
v 0.3 0.5 0.2
v -0.4 0.5 1.49012e-008
v -0.3 0.5 1.49012e-008
v -0.2 0.5 1.49012e-008
v -0.2 0.5 -0.1
v -0.1 0.5 -0.1
v 0.1 0.5 -0.1
v 0.2 0.5 -0.1
v -0.3 0.5 -0.2
v -0.2 0.5 -0.2
v -0.1 0.5 -0.2
v 0.1 0.5 -0.2
v 0.2 0.5 -0.2
v 0.3 0.5 -0.2
v -0.2 0.5 -0.3
v -0.1 0.5 -0.3
v 0.1 0.5 -0.3
v 0.2 0.5 -0.3
v -0.1 0.5 -0.4
v 0.1 0.5 -0.4
v -0.2 0.6 0.2
v 0.2 0.6 0.2
v -0.2 0.6 -0.1
v -0.1 0.6 -0.1
v 0.1 0.6 -0.1
v 0.2 0.6 -0.1
v -0.1 0.6 -0.2
v 0.1 0.6 -0.2

# faces
f 5/1/1 4/1/1 3/1/1
f 6/1/1 4/1/1 5/1/1
f 8/2/1 2/2/1 1/2/1
f 9/2/1 2/2/1 8/2/1
f 10/1/1 5/1/1 3/1/1
f 11/1/1 5/1/1 10/1/1
f 12/1/1 5/1/1 11/1/1
f 13/2/1 9/2/1 8/2/1
f 13/2/1 8/2/1 7/2/1
f 13/2/1 11/2/1 10/2/1
f 13/2/1 10/2/1 9/2/1
f 14/2/1 11/2/1 13/2/1
f 19/5/1 16/5/1 15/5/1
f 20/5/1 16/5/1 19/5/1
f 21/3/1 20/3/1 19/3/1
f 22/3/1 20/3/1 21/3/1
f 24/1/1 18/1/1 17/1/1
f 25/1/1 18/1/1 24/1/1
f 28/1/1 24/1/1 23/1/1
f 29/1/1 24/1/1 28/1/1
f 30/1/1 27/1/1 26/1/1
f 31/1/1 27/1/1 30/1/1
f 36/1/1 33/1/1 32/1/1
f 37/1/1 33/1/1 36/1/1
f 41/1/1 35/1/1 34/1/1
f 42/1/1 35/1/1 41/1/1
f 43/1/1 40/1/1 39/1/1
f 43/1/1 39/1/1 38/1/1
f 44/1/1 40/1/1 43/1/1
f 49/1/1 46/1/1 45/1/1
f 50/1/1 46/1/1 49/1/1
f 51/1/1 48/1/1 47/1/1
f 52/1/1 48/1/1 51/1/1
f 55/2/1 54/2/1 53/2/1
f 56/2/1 54/2/1 55/2/1
f 60/3/1 58/3/1 57/3/1
f 61/1/1 59/1/1 58/1/1
f 61/3/1 58/3/1 60/3/1
f 62/1/1 59/1/1 61/1/1
f 63/1/1 59/1/1 62/1/1
f 67/3/1 65/3/1 64/3/1
f 68/1/1 66/1/1 65/1/1
f 68/3/1 65/3/1 67/3/1
f 69/1/1 66/1/1 68/1/1
f 72/1/1 69/1/1 68/1/1
f 73/1/1 69/1/1 72/1/1
f 74/4/1 70/4/1 69/4/1
f 74/1/1 69/1/1 73/1/1
f 75/4/1 70/4/1 74/4/1
f 76/1/1 73/1/1 72/1/1
f 76/1/1 72/1/1 71/1/1
f 77/1/1 73/1/1 76/1/1
f 80/1/1 79/1/1 78/1/1
f 81/1/1 79/1/1 80/1/1
f 82/2/2 83/2/2 86/2/2
f 84/1/2 85/1/2 87/1/2
f 82/2/2 86/2/2 88/2/2
f 88/2/2 86/2/2 89/2/2
f 87/1/2 85/1/2 90/1/2
f 90/1/2 85/1/2 91/1/2
f 92/3/2 93/3/2 97/3/2
f 97/3/2 93/3/2 98/3/2
f 94/3/2 95/3/2 99/3/2
f 95/1/2 96/1/2 100/1/2
f 99/3/2 95/3/2 100/3/2
f 100/1/2 96/1/2 101/1/2
f 98/3/2 99/3/2 103/3/2
f 103/3/2 99/3/2 104/3/2
f 101/1/2 102/1/2 106/1/2
f 100/1/2 101/1/2 106/1/2
f 106/1/2 102/1/2 107/1/2
f 107/1/2 102/1/2 108/1/2
f 105/2/2 106/2/2 109/2/2
f 106/2/2 107/2/2 109/2/2
f 109/2/2 107/2/2 110/2/2
f 111/3/2 112/3/2 116/3/2
f 116/3/2 112/3/2 117/3/2
f 113/3/2 114/3/2 118/3/2
f 114/1/2 115/1/2 119/1/2
f 118/3/2 114/3/2 119/3/2
f 119/1/2 115/1/2 120/1/2
f 120/1/2 115/1/2 121/1/2
f 122/2/2 123/2/2 125/2/2
f 125/2/2 123/2/2 126/2/2
f 124/2/2 125/2/2 130/2/2
f 125/2/2 126/2/2 130/2/2
f 126/2/2 127/2/2 130/2/2
f 130/2/2 127/2/2 131/2/2
f 128/1/2 129/1/2 134/1/2
f 134/1/2 129/1/2 135/1/2
f 132/1/2 133/1/2 136/1/2
f 136/1/2 133/1/2 137/1/2
f 138/1/2 139/1/2 142/1/2
f 142/1/2 139/1/2 143/1/2
f 140/1/2 141/1/2 146/1/2
f 146/1/2 141/1/2 147/1/2
f 144/1/2 145/1/2 148/1/2
f 148/1/2 145/1/2 149/1/2
f 150/1/2 151/1/2 153/1/2
f 153/1/2 151/1/2 154/1/2
f 152/1/2 153/1/2 157/1/2
f 157/1/2 153/1/2 158/1/2
f 155/1/2 156/1/2 159/1/2
f 159/1/2 156/1/2 160/1/2
f 161/1/2 162/1/2 163/1/2
f 163/1/2 162/1/2 164/1/2
f 161/1/2 163/1/2 165/1/2
f 165/1/2 163/1/2 166/1/2
f 169/2/3 168/2/3 167/2/3
f 170/2/3 168/2/3 169/2/3
f 173/2/3 172/2/3 171/2/3
f 174/2/3 172/2/3 173/2/3
f 175/2/3 172/2/3 174/2/3
f 176/3/3 174/3/3 173/3/3
f 177/3/3 174/3/3 176/3/3
f 180/2/3 179/2/3 178/2/3
f 181/2/3 179/2/3 180/2/3
f 185/3/3 183/3/3 182/3/3
f 186/3/3 183/3/3 185/3/3
f 187/3/3 185/3/3 184/3/3
f 188/3/3 185/3/3 187/3/3
f 191/1/3 190/1/3 189/1/3
f 192/1/3 190/1/3 191/1/3
f 193/1/3 190/1/3 192/1/3
f 194/1/3 190/1/3 193/1/3
f 197/1/3 196/1/3 195/1/3
f 201/1/3 196/1/3 197/1/3
f 202/1/3 196/1/3 201/1/3
f 203/3/3 199/3/3 198/3/3
f 204/3/3 199/3/3 203/3/3
f 205/1/3 201/1/3 200/1/3
f 206/1/3 201/1/3 205/1/3
f 207/1/3 204/1/3 203/1/3
f 207/1/3 205/1/3 204/1/3
f 208/1/3 205/1/3 207/1/3
f 211/1/3 210/1/3 209/1/3
f 212/1/3 210/1/3 211/1/3
f 215/1/3 214/1/3 213/1/3
f 216/1/3 214/1/3 215/1/3
f 219/1/3 218/1/3 217/1/3
f 220/1/3 218/1/3 219/1/3
f 223/3/3 222/3/3 221/3/3
f 224/3/3 222/3/3 223/3/3
f 227/3/3 226/3/3 225/3/3
f 228/3/3 226/3/3 227/3/3
f 231/1/3 230/1/3 229/1/3
f 232/1/3 230/1/3 231/1/3
f 234/1/3 230/1/3 232/1/3
f 235/1/3 234/1/3 233/1/3
f 236/1/3 230/1/3 234/1/3
f 236/1/3 234/1/3 235/1/3
f 239/1/3 238/1/3 237/1/3
f 240/1/3 238/1/3 239/1/3
f 241/2/4 242/2/4 243/2/4
f 243/2/4 242/2/4 244/2/4
f 244/2/4 242/2/4 245/2/4
f 245/2/4 242/2/4 246/2/4
f 247/2/4 248/2/4 249/2/4
f 249/2/4 248/2/4 250/2/4
f 251/3/4 252/3/4 254/3/4
f 254/3/4 252/3/4 255/3/4
f 253/3/4 254/3/4 258/3/4
f 258/3/4 254/3/4 259/3/4
f 256/2/4 257/2/4 260/2/4
f 260/2/4 257/2/4 261/2/4
f 262/2/4 263/2/4 264/2/4
f 264/2/4 263/2/4 265/2/4
f 266/1/4 267/1/4 268/1/4
f 268/1/4 267/1/4 269/1/4
f 270/1/4 271/1/4 272/1/4
f 272/1/4 271/1/4 273/1/4
f 274/1/4 275/1/4 276/1/4
f 276/1/4 275/1/4 277/1/4
f 278/1/4 279/1/4 280/1/4
f 280/1/4 279/1/4 281/1/4
f 282/1/4 283/1/4 284/1/4
f 284/1/4 283/1/4 285/1/4
f 286/1/4 287/1/4 288/1/4
f 288/1/4 287/1/4 289/1/4
f 290/1/4 291/1/4 292/1/4
f 292/1/4 291/1/4 293/1/4
f 294/1/4 295/1/4 296/1/4
f 296/1/4 295/1/4 297/1/4
f 298/1/4 299/1/4 300/1/4
f 300/1/4 299/1/4 301/1/4
f 302/1/4 303/1/4 304/1/4
f 304/1/4 303/1/4 305/1/4
f 305/1/4 306/1/4 307/1/4
f 307/1/4 306/1/4 308/1/4
f 309/1/4 310/1/4 311/1/4
f 311/1/4 310/1/4 312/1/4
f 313/1/4 314/1/4 316/1/4
f 316/1/4 314/1/4 317/1/4
f 315/1/4 316/1/4 318/1/4
f 318/1/4 316/1/4 319/1/4
f 320/1/4 321/1/4 322/1/4
f 320/1/4 322/1/4 324/1/4
f 322/1/4 323/1/4 324/1/4
f 324/1/4 323/1/4 325/1/4
f 320/1/4 324/1/4 326/1/4
f 326/1/4 324/1/4 327/1/4
f 333/2/5 329/2/5 328/2/5
f 334/3/5 330/3/5 329/3/5
f 334/2/5 329/2/5 333/2/5
f 335/3/5 330/3/5 334/3/5
f 337/2/5 332/2/5 331/2/5
f 338/2/5 332/2/5 337/2/5
f 340/5/5 335/5/5 334/5/5
f 341/3/5 336/3/5 335/3/5
f 341/5/5 335/5/5 340/5/5
f 342/3/5 336/3/5 341/3/5
f 346/1/5 340/1/5 339/1/5
f 346/3/5 341/3/5 340/3/5
f 347/3/5 341/3/5 346/3/5
f 348/3/5 344/3/5 343/3/5
f 349/1/5 345/1/5 344/1/5
f 349/3/5 344/3/5 348/3/5
f 350/1/5 347/1/5 346/1/5
f 353/1/5 349/1/5 348/1/5
f 354/3/5 351/3/5 350/3/5
f 354/1/5 350/1/5 346/1/5
f 355/3/5 351/3/5 354/3/5
f 356/3/5 353/3/5 352/3/5
f 357/1/5 349/1/5 353/1/5
f 357/3/5 353/3/5 356/3/5
f 358/1/5 346/1/5 339/1/5
f 358/1/5 355/1/5 354/1/5
f 358/1/5 354/1/5 346/1/5
f 359/1/5 355/1/5 358/1/5
f 360/1/5 355/1/5 359/1/5
f 361/1/5 357/1/5 356/1/5
f 362/1/5 345/1/5 349/1/5
f 362/1/5 349/1/5 357/1/5
f 362/1/5 357/1/5 361/1/5
f 363/1/5 345/1/5 362/1/5
f 364/1/5 361/1/5 360/1/5
f 364/1/5 360/1/5 359/1/5
f 364/1/5 362/1/5 361/1/5
f 365/1/5 362/1/5 364/1/5
f 368/1/5 367/1/5 366/1/5
f 369/1/5 367/1/5 368/1/5
f 372/2/5 371/2/5 370/2/5
f 373/2/5 371/2/5 372/2/5
f 374/2/5 371/2/5 373/2/5
f 375/2/5 371/2/5 374/2/5
f 377/2/5 374/2/5 373/2/5
f 378/2/5 374/2/5 377/2/5
f 380/2/5 377/2/5 376/2/5
f 380/2/5 379/2/5 378/2/5
f 380/2/5 378/2/5 377/2/5
f 381/2/5 379/2/5 380/2/5
f 382/2/5 379/2/5 381/2/5
f 383/2/5 379/2/5 382/2/5
f 386/2/5 382/2/5 381/2/5
f 387/2/5 382/2/5 386/2/5
f 388/1/5 385/1/5 384/1/5
f 389/1/5 385/1/5 388/1/5
f 392/1/5 391/1/5 390/1/5
f 393/1/5 392/1/5 390/1/5
f 394/1/5 392/1/5 393/1/5
f 398/1/5 396/1/5 395/1/5
f 398/1/5 397/1/5 396/1/5
f 399/1/5 397/1/5 398/1/5
f 400/3/6 401/3/6 402/3/6
f 402/3/6 401/3/6 403/3/6
f 403/3/6 404/3/6 406/3/6
f 406/3/6 404/3/6 407/3/6
f 405/3/6 406/3/6 410/3/6
f 410/3/6 406/3/6 411/3/6
f 408/3/6 409/3/6 412/3/6
f 412/3/6 409/3/6 413/3/6
f 414/3/6 415/3/6 416/3/6
f 416/3/6 415/3/6 417/3/6
f 418/3/6 419/3/6 420/3/6
f 420/3/6 419/3/6 421/3/6
f 422/3/6 423/3/6 424/3/6
f 424/3/6 423/3/6 425/3/6
f 426/1/6 427/1/6 430/1/6
f 430/1/6 427/1/6 431/1/6
f 428/1/6 429/1/6 434/1/6
f 434/1/6 429/1/6 435/1/6
f 431/1/6 432/1/6 436/1/6
f 436/1/6 432/1/6 437/1/6
f 433/1/6 434/1/6 438/1/6
f 438/1/6 434/1/6 439/1/6
f 442/1/6 443/1/6 444/1/6
f 440/1/6 441/1/6 447/1/6
f 444/1/6 445/1/6 448/1/6
f 442/1/6 444/1/6 448/1/6
f 448/1/6 445/1/6 449/1/6
f 449/1/6 445/1/6 450/1/6
f 446/1/6 447/1/6 453/1/6
f 447/1/6 441/1/6 454/1/6
f 453/1/6 447/1/6 454/1/6
f 454/1/6 441/1/6 455/1/6
f 450/1/6 451/1/6 456/1/6
f 449/1/6 450/1/6 456/1/6
f 456/1/6 451/1/6 457/1/6
f 457/1/6 451/1/6 458/1/6
f 452/1/6 453/1/6 459/1/6
f 453/1/6 454/1/6 459/1/6
f 459/1/6 454/1/6 460/1/6
f 460/1/6 454/1/6 461/1/6
f 457/1/6 458/1/6 462/1/6
f 459/1/6 460/1/6 462/1/6
f 458/1/6 459/1/6 462/1/6
f 462/1/6 460/1/6 463/1/6
f 464/2/6 465/2/6 466/2/6
f 466/2/6 465/2/6 467/2/6
f 464/2/6 466/2/6 470/2/6
f 470/2/6 466/2/6 471/2/6
f 471/2/6 466/2/6 472/2/6
f 471/1/6 472/1/6 473/1/6
f 468/1/6 469/1/6 476/1/6
f 473/1/6 474/1/6 477/1/6
f 471/1/6 473/1/6 477/1/6
f 477/1/6 474/1/6 478/1/6
f 478/1/6 474/1/6 479/1/6
f 475/1/6 476/1/6 480/1/6
f 476/1/6 469/1/6 481/1/6
f 480/1/6 476/1/6 481/1/6
f 481/1/6 469/1/6 482/1/6
f 478/1/6 479/1/6 483/1/6
f 479/1/6 480/1/6 483/1/6
f 480/1/6 481/1/6 483/1/6
f 483/1/6 481/1/6 484/1/6
f 484/1/6 481/1/6 485/1/6
f 485/1/6 481/1/6 486/1/6
f 484/1/6 485/1/6 487/1/6
f 487/1/6 485/1/6 488/1/6
f 489/1/6 490/1/6 491/1/6
f 491/1/6 490/1/6 492/1/6
f 492/1/6 490/1/6 493/1/6
f 493/1/6 490/1/6 494/1/6
f 492/1/6 493/1/6 495/1/6
f 495/1/6 493/1/6 496/1/6
