# MagicaVoxel @ Ephtracy

# group
o 

# material
mtllib Small Stone Hut.mtl
usemtl palette

# normals
vn -1 0 0
vn 1 0 0
vn 0 0 1
vn 0 0 -1
vn 0 -1 0
vn 0 1 0

# texcoords
vt 0.630859 0.5
vt 0.880859 0.5
vt 0.974609 0.5
vt 0.978516 0.5

# verts
v -0.3 0 0.3
v -0.3 0 0.2
v -0.3 0 -0.2
v -0.3 0 -0.3
v -0.3 0.3 0.2
v -0.3 0.3 -0.2
v -0.3 0.4 0.3
v -0.3 0.4 -0.3
v -0.2 0 0.2
v -0.2 0 -0.2
v -0.2 0.1 0.1
v -0.2 0.1 -0.1
v -0.2 0.2 0.1
v -0.2 0.2 -0.1
v -0.2 0.3 0.2
v -0.2 0.3 -0.2
v -0.2 0.4 0.2
v -0.2 0.4 -0.2
v -0.2 0.5 0.2
v -0.2 0.5 -0.2
v -0.1 0.5 0.1
v -0.1 0.5 -0.1
v -0.1 0.6 0.1
v -0.1 0.6 -0.1
v 0.2 0 0.3
v 0.2 0 0.2
v 0.2 0 -0.2
v 0.2 0 -0.3
v 0.2 0.3 0.3
v 0.2 0.3 0.2
v 0.2 0.3 -0.2
v 0.2 0.3 -0.3
v -0.2 0 0.3
v -0.2 0 0.2
v -0.2 0 -0.2
v -0.2 0 -0.3
v -0.2 0.3 0.3
v -0.2 0.3 0.2
v -0.2 0.3 -0.2
v -0.2 0.3 -0.3
v 0.1 0.5 0.1
v 0.1 0.5 -0.1
v 0.1 0.6 0.1
v 0.1 0.6 -0.1
v 0.2 0 0.2
v 0.2 0 -0.2
v 0.2 0.1 0.1
v 0.2 0.1 -0.1
v 0.2 0.2 0.1
v 0.2 0.2 -0.1
v 0.2 0.3 0.2
v 0.2 0.3 -0.2
v 0.2 0.4 0.2
v 0.2 0.4 -0.2
v 0.2 0.5 0.2
v 0.2 0.5 -0.2
v 0.3 0 0.3
v 0.3 0 0.2
v 0.3 0 -0.2
v 0.3 0 -0.3
v 0.3 0.3 0.2
v 0.3 0.3 -0.2
v 0.3 0.4 0.3
v 0.3 0.4 -0.3
v -0.3 0 0.3
v -0.3 0.4 0.3
v -0.2 0 0.3
v -0.2 0.3 0.3
v 0.2 0 0.3
v 0.2 0.3 0.3
v 0.3 0 0.3
v 0.3 0.4 0.3
v -0.2 0 0.2
v -0.2 0.3 0.2
v -0.2 0.4 0.2
v -0.2 0.5 0.2
v -0.1 0 0.2
v -0.1 0.2 0.2
v 0 0 0.2
v 0 0.2 0.2
v 0.2 0 0.2
v 0.2 0.3 0.2
v 0.2 0.4 0.2
v 0.2 0.5 0.2
v -0.1 0.5 0.1
v -0.1 0.6 0.1
v 0.1 0.5 0.1
v 0.1 0.6 0.1
v -0.3 0 -0.2
v -0.3 0.3 -0.2
v -0.2 0 -0.2
v -0.2 0.3 -0.2
v 0.2 0 -0.2
v 0.2 0.3 -0.2
v 0.3 0 -0.2
v 0.3 0.3 -0.2
v -0.3 0 0.2
v -0.3 0.3 0.2
v -0.2 0 0.2
v -0.2 0.3 0.2
v 0.2 0 0.2
v 0.2 0.3 0.2
v 0.3 0 0.2
v 0.3 0.3 0.2
v -0.1 0.5 -0.1
v -0.1 0.6 -0.1
v 0.1 0.5 -0.1
v 0.1 0.6 -0.1
v -0.2 0 -0.2
v -0.2 0.3 -0.2
v -0.2 0.4 -0.2
v -0.2 0.5 -0.2
v -0.1 0.1 -0.2
v -0.1 0.2 -0.2
v 0.1 0.1 -0.2
v 0.1 0.2 -0.2
v 0.2 0 -0.2
v 0.2 0.3 -0.2
v 0.2 0.4 -0.2
v 0.2 0.5 -0.2
v -0.3 0 -0.3
v -0.3 0.4 -0.3
v -0.2 0 -0.3
v -0.2 0.3 -0.3
v 0.2 0 -0.3
v 0.2 0.3 -0.3
v 0.3 0 -0.3
v 0.3 0.4 -0.3
v -0.3 0 0.3
v -0.2 0 0.3
v 0.2 0 0.3
v 0.3 0 0.3
v -0.3 0 0.2
v -0.2 0 0.2
v -0.1 0 0.2
v 0 0 0.2
v 0.2 0 0.2
v 0.3 0 0.2
v -0.1 0 0.1
v 0 0 0.1
v -0.3 0 -0.2
v -0.2 0 -0.2
v 0.2 0 -0.2
v 0.3 0 -0.2
v -0.3 0 -0.3
v -0.2 0 -0.3
v 0.2 0 -0.3
v 0.3 0 -0.3
v -0.2 0.3 0.3
v 0.2 0.3 0.3
v -0.3 0.3 0.2
v -0.2 0.3 0.2
v 0.2 0.3 0.2
v 0.3 0.3 0.2
v -0.3 0.3 -0.2
v -0.2 0.3 -0.2
v 0.2 0.3 -0.2
v 0.3 0.3 -0.2
v -0.2 0.3 -0.3
v 0.2 0.3 -0.3
v -0.3 0.4 0.3
v 0.3 0.4 0.3
v -0.2 0.4 0.2
v 0.2 0.4 0.2
v -0.2 0.4 -0.2
v 0.2 0.4 -0.2
v -0.3 0.4 -0.3
v 0.3 0.4 -0.3
v -0.2 0.5 0.2
v 0.2 0.5 0.2
v -0.1 0.5 0.1
v 0.1 0.5 0.1
v -0.1 0.5 -0.1
v 0.1 0.5 -0.1
v -0.2 0.5 -0.2
v 0.2 0.5 -0.2
v -0.1 0.6 0.1
v 0.1 0.6 0.1
v -0.1 0.6 -0.1
v 0.1 0.6 -0.1

# faces
f 5/4/1 2/4/1 1/4/1
f 6/4/1 4/4/1 3/4/1
f 7/4/1 5/4/1 1/4/1
f 7/4/1 6/4/1 5/4/1
f 8/4/1 4/4/1 6/4/1
f 8/4/1 6/4/1 7/4/1
f 11/3/1 10/3/1 9/3/1
f 12/3/1 10/3/1 11/3/1
f 13/3/1 11/3/1 9/3/1
f 13/1/1 12/1/1 11/1/1
f 14/3/1 10/3/1 12/3/1
f 14/1/1 12/1/1 13/1/1
f 15/3/1 13/3/1 9/3/1
f 15/3/1 14/3/1 13/3/1
f 16/3/1 10/3/1 14/3/1
f 16/3/1 14/3/1 15/3/1
f 19/4/1 18/4/1 17/4/1
f 20/4/1 18/4/1 19/4/1
f 23/4/1 22/4/1 21/4/1
f 24/4/1 22/4/1 23/4/1
f 29/4/1 26/4/1 25/4/1
f 30/4/1 26/4/1 29/4/1
f 31/4/1 28/4/1 27/4/1
f 32/4/1 28/4/1 31/4/1
f 33/4/2 34/4/2 37/4/2
f 37/4/2 34/4/2 38/4/2
f 35/4/2 36/4/2 39/4/2
f 39/4/2 36/4/2 40/4/2
f 41/4/2 42/4/2 43/4/2
f 43/4/2 42/4/2 44/4/2
f 45/3/2 46/3/2 47/3/2
f 47/3/2 46/3/2 48/3/2
f 45/3/2 47/3/2 49/3/2
f 47/1/2 48/1/2 49/1/2
f 48/3/2 46/3/2 50/3/2
f 49/1/2 48/1/2 50/1/2
f 45/3/2 49/3/2 51/3/2
f 49/3/2 50/3/2 51/3/2
f 50/3/2 46/3/2 52/3/2
f 51/3/2 50/3/2 52/3/2
f 53/4/2 54/4/2 55/4/2
f 55/4/2 54/4/2 56/4/2
f 57/4/2 58/4/2 61/4/2
f 59/4/2 60/4/2 62/4/2
f 57/4/2 61/4/2 63/4/2
f 61/4/2 62/4/2 63/4/2
f 62/4/2 60/4/2 64/4/2
f 63/4/2 62/4/2 64/4/2
f 67/4/3 66/4/3 65/4/3
f 68/4/3 66/4/3 67/4/3
f 70/4/3 66/4/3 68/4/3
f 71/4/3 70/4/3 69/4/3
f 72/4/3 66/4/3 70/4/3
f 72/4/3 70/4/3 71/4/3
f 77/3/3 74/3/3 73/3/3
f 78/3/3 74/3/3 77/3/3
f 79/2/3 78/2/3 77/2/3
f 80/3/3 74/3/3 78/3/3
f 80/2/3 78/2/3 79/2/3
f 81/3/3 80/3/3 79/3/3
f 82/3/3 74/3/3 80/3/3
f 82/3/3 80/3/3 81/3/3
f 83/4/3 76/4/3 75/4/3
f 84/4/3 76/4/3 83/4/3
f 87/4/3 86/4/3 85/4/3
f 88/4/3 86/4/3 87/4/3
f 91/4/3 90/4/3 89/4/3
f 92/4/3 90/4/3 91/4/3
f 95/4/3 94/4/3 93/4/3
f 96/4/3 94/4/3 95/4/3
f 97/4/4 98/4/4 99/4/4
f 99/4/4 98/4/4 100/4/4
f 101/4/4 102/4/4 103/4/4
f 103/4/4 102/4/4 104/4/4
f 105/4/4 106/4/4 107/4/4
f 107/4/4 106/4/4 108/4/4
f 109/3/4 110/3/4 113/3/4
f 113/3/4 110/3/4 114/3/4
f 109/3/4 113/3/4 115/3/4
f 113/1/4 114/1/4 115/1/4
f 114/3/4 110/3/4 116/3/4
f 115/1/4 114/1/4 116/1/4
f 109/3/4 115/3/4 117/3/4
f 115/3/4 116/3/4 117/3/4
f 116/3/4 110/3/4 118/3/4
f 117/3/4 116/3/4 118/3/4
f 111/4/4 112/4/4 119/4/4
f 119/4/4 112/4/4 120/4/4
f 121/4/4 122/4/4 123/4/4
f 123/4/4 122/4/4 124/4/4
f 124/4/4 122/4/4 126/4/4
f 125/4/4 126/4/4 127/4/4
f 126/4/4 122/4/4 128/4/4
f 127/4/4 126/4/4 128/4/4
f 133/4/5 130/4/5 129/4/5
f 134/4/5 130/4/5 133/4/5
f 137/4/5 132/4/5 131/4/5
f 138/4/5 132/4/5 137/4/5
f 139/2/5 136/2/5 135/2/5
f 139/3/5 135/3/5 134/3/5
f 140/3/5 137/3/5 136/3/5
f 140/2/5 136/2/5 139/2/5
f 142/3/5 139/3/5 134/3/5
f 142/3/5 140/3/5 139/3/5
f 143/3/5 137/3/5 140/3/5
f 143/3/5 140/3/5 142/3/5
f 145/4/5 142/4/5 141/4/5
f 146/4/5 142/4/5 145/4/5
f 147/4/5 144/4/5 143/4/5
f 148/4/5 144/4/5 147/4/5
f 152/4/5 150/4/5 149/4/5
f 153/4/5 150/4/5 152/4/5
f 155/4/5 152/4/5 151/4/5
f 156/4/5 152/4/5 155/4/5
f 157/4/5 154/4/5 153/4/5
f 158/4/5 154/4/5 157/4/5
f 159/4/5 157/4/5 156/4/5
f 160/4/5 157/4/5 159/4/5
f 161/4/6 162/4/6 163/4/6
f 163/4/6 162/4/6 164/4/6
f 161/4/6 163/4/6 165/4/6
f 164/4/6 162/4/6 166/4/6
f 161/4/6 165/4/6 167/4/6
f 165/4/6 166/4/6 167/4/6
f 166/4/6 162/4/6 168/4/6
f 167/4/6 166/4/6 168/4/6
f 169/4/6 170/4/6 171/4/6
f 171/4/6 170/4/6 172/4/6
f 169/4/6 171/4/6 173/4/6
f 172/4/6 170/4/6 174/4/6
f 169/4/6 173/4/6 175/4/6
f 173/4/6 174/4/6 175/4/6
f 174/4/6 170/4/6 176/4/6
f 175/4/6 174/4/6 176/4/6
f 177/4/6 178/4/6 179/4/6
f 179/4/6 178/4/6 180/4/6
